<svg width="22" height="16" viewBox="0 0 22 16" fill="none" xmlns="http://www.w3.org/2000/svg">
<path d="M0.445823 1.30001C3.37501 3.7792 8.51255 8.14173 10.0209 9.50007C10.2251 9.68341 10.4417 9.77507 10.6667 9.77507C10.8917 9.77507 11.1084 9.68341 11.3126 9.50007C12.8209 8.14173 17.9585 3.7792 20.8876 1.30001C21.071 1.14584 21.096 0.875007 20.9501 0.687505C20.6085 0.250002 20.1001 0 19.5543 0H1.77917C1.23333 0 0.724991 0.250002 0.383322 0.683338C0.233321 0.875007 0.262488 1.14584 0.445823 1.30001Z" fill="#042F47"/>
<path d="M21.0751 2.64136C20.9168 2.56636 20.7335 2.59553 20.6001 2.70386C18.6834 4.32887 16.1543 6.47889 14.2501 8.1164C14.1501 8.2039 14.0917 8.3289 14.0959 8.46224C14.1001 8.59557 14.1584 8.72057 14.2626 8.79974C16.0334 10.2164 18.7001 12.1664 20.6293 13.5539C20.7043 13.6081 20.796 13.6373 20.8876 13.6373C20.9585 13.6373 21.0251 13.6206 21.0918 13.5873C21.2418 13.5123 21.3335 13.3581 21.3335 13.1914V3.04553C21.3335 2.87053 21.2335 2.71219 21.0751 2.64136Z" fill="#042F47"/>
<path d="M0.704172 13.5587C2.63335 12.1712 5.30004 10.2212 7.07089 8.80454C7.17506 8.72121 7.23339 8.59621 7.23756 8.46704C7.24172 8.3337 7.18339 8.2087 7.08339 8.1212C5.17504 6.47952 2.65002 4.33367 0.733339 2.70449C0.600005 2.59199 0.41667 2.56699 0.258335 2.64199C0.100001 2.71283 0 2.87116 0 3.04616V13.1962C0 13.3629 0.0916674 13.5171 0.241669 13.5921C0.304169 13.6254 0.375003 13.6421 0.445837 13.6421C0.537504 13.6421 0.629171 13.6129 0.704172 13.5587Z" fill="#042F47"/>
<path d="M20.7876 14.767C18.9251 13.4378 15.5001 10.9545 13.4542 9.29198C13.2876 9.15448 13.0459 9.15865 12.8834 9.30031C12.4834 9.65032 12.1459 9.94615 11.9084 10.1587C11.1751 10.8212 10.1626 10.8212 9.42922 10.1587C9.19172 9.94615 8.85421 9.65032 8.45421 9.30031C8.29171 9.15865 8.05004 9.15448 7.88337 9.29198C5.84586 10.9462 2.4125 13.4337 0.549983 14.767C0.445815 14.842 0.379148 14.9587 0.366648 15.0837C0.354148 15.2129 0.395815 15.3379 0.483315 15.4295C0.816651 15.792 1.28749 16.0004 1.77916 16.0004H19.5585C20.046 16.0004 20.521 15.792 20.8585 15.4295C20.946 15.3379 20.9876 15.2087 20.9751 15.0837C20.9585 14.9545 20.8918 14.842 20.7876 14.767Z" fill="#042F47"/>
</svg>
