<svg width="20" height="20" viewBox="0 0 20 20" fill="none" xmlns="http://www.w3.org/2000/svg">
<rect width="20" height="20" fill="#E5E5E5"/>
<rect width="1920" height="5235" transform="translate(-431 -13)" fill="white"/>
<circle cx="10" cy="10" r="10" fill="url(#paint0_linear)"/>
<path d="M9.997 5.00469C7.95028 5.00469 6.00661 4.82267 5.26439 6.72765C4.95762 7.51437 5.00227 8.53621 5.00227 9.99923C5.00227 11.2831 4.96105 12.4896 5.26439 13.2703C6.00502 15.1763 7.96455 14.9938 9.99594 14.9938C11.956 14.9938 13.9768 15.1977 14.728 13.2703C15.0353 12.4756 14.9901 11.4691 14.9901 9.99923C14.9901 8.04801 15.0977 6.78841 14.1515 5.84292C13.1931 4.88475 11.8973 5.00495 9.99488 5.00495L9.997 5.00469ZM9.54939 5.90474C13.8188 5.89787 14.3621 5.42341 14.0622 12.0157C13.9557 14.3473 12.1801 14.0913 9.99753 14.0913C6.01797 14.0913 5.90356 13.9775 5.90356 9.99685C5.90356 5.96999 6.21931 5.90685 9.54939 5.90368V5.90474ZM12.6633 6.73373C12.3325 6.73373 12.0641 7.00187 12.0641 7.33288C12.0641 7.66364 12.3323 7.93204 12.6633 7.93204C12.9942 7.93204 13.2626 7.6639 13.2626 7.33288C13.2626 7.00213 12.9942 6.73373 12.6633 6.73373ZM9.997 7.43433C8.58046 7.43433 7.43212 8.58297 7.43212 9.99923C7.43212 11.4155 8.58046 12.5636 9.997 12.5636C11.4135 12.5636 12.5613 11.4155 12.5613 9.99923C12.5613 8.58297 11.4135 7.43433 9.997 7.43433ZM9.997 8.33438C12.1983 8.33438 12.2009 11.6641 9.997 11.6641C7.7965 11.6641 7.79306 8.33438 9.997 8.33438Z" fill="white"/>
<defs>
<linearGradient id="paint0_linear" x1="1.33713" y1="18.6968" x2="19.8684" y2="2.65474" gradientUnits="userSpaceOnUse">
<stop stop-color="#FFDD55"/>
<stop offset="0.5" stop-color="#FF543E"/>
<stop offset="1" stop-color="#C837AB"/>
</linearGradient>
</defs>
</svg>
