<svg width="61" height="60" viewBox="0 0 61 60" fill="none" xmlns="http://www.w3.org/2000/svg">
<path d="M28.4254 1.03038L34.6917 1.47798C34.8952 1.49252 35.0939 1.54697 35.2765 1.63823C36.163 2.08151 36.4143 3.22984 35.794 4.0029L5.50128 41.7523C5.00543 42.3702 4.05204 42.3281 3.61258 41.6689C3.53808 41.5571 3.48391 41.4357 3.45137 41.3054C2.60363 37.9106 1 31.3924 1 31C1 30.6188 1.90813 25.0613 2.42628 21.943C2.4753 21.648 2.568 21.364 2.70174 21.0965L3.21287 20.0743C4.052 18.396 6.34234 18.1406 7.5305 19.5928C8.5549 20.8449 10.4641 20.8607 11.509 19.6257L14.6997 15.8549C14.8987 15.6197 15.0603 15.3553 15.1788 15.0709L17.148 10.3448C17.3774 9.79412 17.4375 9.18756 17.3205 8.60259L16.9709 6.85457C16.6956 5.47815 17.4116 4.09487 18.6942 3.52478L20.7151 2.62664C20.9045 2.54244 21.1022 2.47811 21.3049 2.43467L27.583 1.08935C27.8596 1.03008 28.1432 1.01023 28.4254 1.03038Z" fill="white"/>
<path d="M11 17.5C18.7302 5.13167 31.7513 2.3492 37.8836 2.47633C38.2915 2.48478 38.6882 2.59409 39.0531 2.77654L46.2416 6.37077C46.4135 6.45673 46.5767 6.559 46.729 6.67618L52.6963 11.2664C52.8979 11.4215 53.079 11.6016 53.2352 11.8024L56.1112 15.5001C56.3676 15.8297 56.5523 16.2092 56.6536 16.6144L57.9423 21.7692C57.9807 21.9228 58.0069 22.0792 58.0206 22.237L58.948 32.9023C58.9823 33.2968 58.9382 33.6943 58.8181 34.0718L55.6915 43.8983C55.5652 44.2951 55.3577 44.6613 55.0822 44.9735L48.386 52.5625C48.1311 52.8515 47.8228 53.0886 47.4781 53.2609L39.4152 57.2924C39.14 57.43 38.8453 57.5244 38.5415 57.5724L30.016 58.9185C29.6746 58.9724 29.3264 58.9669 28.9868 58.9022L19.3821 57.0728C19.1284 57.0245 18.8825 56.9446 18.6509 56.8302C14.6918 54.8744 6.94123 50.0471 5.00004 45C2.50004 38.5 1.00004 33.5 11 17.5Z" fill="#69CBCC"/>
<path d="M42.1309 11.5215L44.1128 10.3323C45.9559 9.22645 46.0721 6.59792 44.3338 5.33366L44.019 5.10473C43.0899 4.429 41.8564 4.34324 40.8427 4.88388L36.8282 7.02497C35.7428 7.60381 35.1651 8.82555 35.4063 10.0317C35.4683 10.3416 35.4772 10.6599 35.4325 10.9728L35.1002 13.2989C35.0343 13.76 35.0767 14.23 35.224 14.6719L36.107 17.3211C36.3586 18.0759 36.3001 18.8998 35.9443 19.6115L35.1652 21.1697C35.0555 21.3891 34.9731 21.6211 34.9199 21.8605L34.2797 24.7416C34.1011 25.545 33.6003 26.2398 32.8946 26.6633L30.1054 28.3367C29.3997 28.7602 28.8989 29.455 28.7203 30.2584L28.4006 31.6974C28.1624 32.7693 28.6499 33.8714 29.6032 34.4161C30.6901 35.0372 32.0687 34.7607 32.832 33.7684L40.7743 23.4434C41.2404 22.8374 41.4576 22.0764 41.3816 21.3157L40.6892 14.3925C40.5737 13.2371 41.1352 12.1189 42.1309 11.5215Z" fill="#C8D645" fill-opacity="0.5"/>
<path d="M5.13002 31.253L9.64799 22.6688C9.80791 22.365 9.58757 22 9.2442 22C9.09164 22 8.94917 21.9238 8.86454 21.7968L6.19885 17.7983C5.61363 16.9204 4.33626 16.885 3.70324 17.729C3.56937 17.9075 3.47618 18.1131 3.43022 18.3315L1.5 27.5L1.02962 33.1445C1.01008 33.3791 1.03838 33.6151 1.1128 33.8384C1.6626 35.4878 4.02574 35.397 4.44742 33.7103L4.93229 31.7708C4.97727 31.5909 5.04365 31.4171 5.13002 31.253Z" fill="#C8D645" fill-opacity="0.5"/>
<path d="M40.8359 11.1094L45.9052 7.72988C46.5613 7.2925 47.4218 7.31638 48.0527 7.78949C49.2734 8.70508 48.9328 10.6202 47.4712 11.0586L46.6262 11.3121C46.2168 11.435 45.8496 11.6692 45.5657 11.9886L42.8631 15.0291C42.3124 15.6486 42.0426 16.4683 42.1176 17.2938L42.4327 20.7598C42.4769 21.2459 42.639 21.7139 42.9051 22.1232L46.9818 28.3951C48.0214 29.9944 50.2698 30.2302 51.6185 28.8815L51.7029 28.7971C51.9 28.6 52.0687 28.3764 52.2041 28.1327L54.5856 23.8459C55.4868 22.2238 57.8954 22.4845 58.4286 24.2618C58.476 24.4201 58.5046 24.5833 58.5138 24.7483L58.9676 32.9165C58.989 33.3015 58.9321 33.6868 58.8003 34.0492L57.6724 37.151C57.3832 37.9461 56.3271 38.1028 55.8195 37.426C55.6184 37.1578 55.3027 37 54.9675 37H52.7082C52.2425 37 51.7831 36.8916 51.3666 36.6833L51 36.5L49.4786 35.7393C49.162 35.581 48.82 35.48 48.4682 35.4409L45.0318 35.0591C44.68 35.02 44.338 34.919 44.0214 34.7607L42.5165 34.0083C41.8615 33.6808 41.1094 33.6042 40.4019 33.7928L34.497 35.3675C34.1691 35.4549 33.8268 35.4753 33.4908 35.4273L31.8076 35.1868C31.1267 35.0895 30.7002 34.3994 30.9177 33.7469C30.9718 33.5845 31.063 33.437 31.184 33.316L34.7899 29.7101C34.9296 29.5704 35.0552 29.4172 35.1648 29.2528L37 26.5L39 23L39.7901 21.6832C40.2407 20.9322 40.3406 20.0218 40.0637 19.191L39.6539 17.9619C39.552 17.656 39.5 17.3356 39.5 17.0132V13.6056C39.5 12.6025 40.0013 11.6658 40.8359 11.1094Z" fill="#C8D645"/>
<path d="M3 39C2.62584 33.3876 6.01405 26.1711 8.09027 22.6704C8.34003 22.2493 8.79689 22 9.28651 22C9.73566 22 10.1586 21.7885 10.4281 21.4292L14.0391 16.6145C14.306 16.2587 14.7892 16.1446 15.187 16.3435C15.3886 16.4443 15.5462 16.6156 15.63 16.8249L16.1503 18.1258C16.3748 18.687 16.3748 19.313 16.1503 19.8742C15.7643 20.8392 16.057 21.9431 16.8703 22.5902L19.2802 24.5076C19.4264 24.6239 19.5614 24.7537 19.6835 24.8952L20.7712 26.1555C21.2413 26.7003 21.5 27.3959 21.5 28.1155V28.7033C21.5 29.2254 21.3638 29.7384 21.1047 30.1917L20.1352 31.8885C19.7294 32.5985 19.0514 33.1122 18.258 33.3105L15.9015 33.8996C15.6351 33.9662 15.3791 34.0691 15.1407 34.2053L13.9437 34.8893C12.9116 35.4791 12.63 36.8399 13.3432 37.7909C13.4473 37.9297 13.5326 38.0816 13.5971 38.2427L13.6366 38.3415C14.1364 39.5909 13.6697 41.0189 12.5286 41.7321L11.2296 42.544C10.7528 42.842 10.2019 43 9.63961 43H9.58615C8.88434 43 8.20474 43.246 7.6656 43.6953L5.76748 45.2771C5.58976 45.4252 5.39181 45.5846 5.16192 45.5587C4.43416 45.4766 3.34118 44.1178 3 39Z" fill="#C8D645"/>
<path d="M22.7023 44.5674L24.9415 45.3138C25.3035 45.4345 25.6149 45.6724 25.8266 45.9899C26.2301 46.5952 26.2081 47.3892 25.7716 47.9712L25.6211 48.1719C25.2301 48.6932 24.6165 49 23.9648 49H22.4868C22.1644 49 21.844 49.052 21.5381 49.154L20.5596 49.4801C19.6647 49.7784 18.6867 49.3733 18.2648 48.5296C18.0924 48.1847 18.0292 47.7955 18.0837 47.4138L18.3382 45.6327C18.4395 44.9233 18.8825 44.3088 19.5234 43.9883C20.1382 43.6809 20.8618 43.6809 21.4766 43.9883L22.3093 44.4047C22.4363 44.4681 22.5676 44.5225 22.7023 44.5674Z" fill="#C8D645"/>
<path d="M10.2913 1.05826L11.8327 1.36655C12.272 1.4544 12.686 1.63951 13.0444 1.90829L15.5384 3.77882C16.1556 4.24172 16.5708 4.92461 16.6976 5.68562L17.3133 9.37982C17.4336 10.1016 17.2859 10.8425 16.8981 11.463L12.5139 18.4777C11.3463 20.3459 8.63223 20.3604 7.45494 18.4983C4.87219 14.4133 2 9.79354 2 9.5C2 9.17334 2.44463 7.04594 2.78921 5.45986C2.9248 4.83578 3.25917 4.27322 3.7398 3.85268L6.15169 1.74227C6.69857 1.26375 7.40054 1 8.12721 1H9.70294C9.9005 1 10.0976 1.01951 10.2913 1.05826Z" fill="white"/>
<path d="M54.9991 13.8318L55.8763 15.2939C55.9586 15.4311 56.0299 15.5746 56.0893 15.7232L56.6957 17.2394C56.8949 17.7373 56.957 18.2796 56.8754 18.8097L56.1315 23.6451C56.0456 24.2036 55.8036 24.7266 55.4335 25.1537L51.9945 29.1218C50.7231 30.5887 48.4145 30.4803 47.2862 28.9007L42.4728 22.162C42.1632 21.7285 41.9746 21.2204 41.9264 20.6899L41.6272 17.3994C41.5466 16.5127 41.864 15.636 42.4936 15.0064L44.1558 13.3442C44.3838 13.1162 44.647 12.9265 44.9354 12.7823L46.8666 11.8167C47.2831 11.6084 47.7425 11.5 48.2082 11.5H50.3842C50.7905 11.5 51.1926 11.5825 51.566 11.7426L53.6084 12.6179C54.188 12.8663 54.6746 13.2911 54.9991 13.8318Z" fill="white"/>
<path d="M45.4999 15.5C46.536 13.0825 49.1375 12.2305 50.7943 12.0428C51.2571 11.9903 51.7168 12.1084 52.1334 12.3167L54.3406 13.4203C55.0805 13.7902 55.6348 14.4493 55.8725 15.2416L56.699 17.9965C56.8939 18.6463 56.8628 19.3429 56.6109 19.9727L55.1714 23.5716C55.0578 23.8555 54.9015 24.1204 54.7078 24.3571L53.0683 26.361C51.7913 27.9218 49.3688 27.8032 48.2501 26.1253L46.4999 23.5C45.4999 22 43.9999 19 45.4999 15.5Z" fill="#E86262"/>
<path d="M5.63459 5.5C6.67064 3.08253 9.2721 2.23046 10.929 2.04277C11.3917 1.99034 11.8515 2.10843 12.268 2.31671L14.4753 3.42032C15.2151 3.79024 15.7694 4.44925 16.0071 5.24156L16.8336 7.99652C17.0285 8.64627 16.9975 9.3429 16.7456 9.97273L15.306 13.5716C15.1924 13.8555 15.0361 14.1204 14.8425 14.3571L13.2029 16.361C11.9259 17.9218 9.50341 17.8032 8.38479 16.1253L6.63459 13.5C5.63459 12 4.13459 9 5.63459 5.5Z" fill="#E86262"/>
<path d="M58.2926 19.9723C58.1144 19.4692 58.0759 18.9259 58.079 18.3922C58.077 16.6619 57.5606 14.9713 56.5954 13.5352C55.7631 12.2971 54.6297 11.2964 53.3066 10.6243C52.8885 10.4118 52.4998 10.1412 52.1838 9.79467C47.8488 5.04073 42.0961 1.79983 35.7702 0.560342C30.0059 -0.569094 24.0553 0.020016 18.6494 2.2266C17.3405 2.76089 15.8369 2.3953 14.6801 1.58259C13.882 1.02189 12.9906 0.595944 12.0409 0.327745C10.3078 -0.16165 8.46569 -0.101712 6.76814 0.499305C5.07059 1.10032 3.60113 2.21285 2.56212 3.68369C1.52311 5.15452 0.965657 6.91131 0.966538 8.71211C0.966538 10.0426 1.58552 11.8428 2.81198 14.0867C3.32693 15.0289 3.35442 16.1644 2.89434 17.1345C0.989244 21.1517 -0.00254122 25.5491 4.8899e-06 30.0096C0.00288182 35.0496 1.27517 40.0077 3.69947 44.4264C6.12377 48.845 9.62197 52.5819 13.8713 55.2921C18.1206 58.0023 22.984 59.5986 28.0129 59.9336C33.0418 60.2686 38.074 59.3316 42.6453 57.209C47.2165 55.0864 51.1795 51.8466 54.1685 47.7885C57.1575 43.7305 59.0762 38.9849 59.7476 33.9898C60.3828 29.2643 59.8822 24.4594 58.2926 19.9723ZM56.143 18.3922C56.1395 18.6287 56.1148 18.8643 56.0692 19.0964C56.0668 19.1049 56.0656 19.1158 56.0631 19.1255C55.6456 21.3038 53.5889 24.6338 51.6337 27.3883C50.5158 28.9632 48.218 28.9633 47.0999 27.3886C44.9096 24.3036 42.5909 20.4959 42.5909 18.3922C42.5909 16.5951 43.3048 14.8716 44.5755 13.6008C45.8463 12.33 47.5698 11.6161 49.3669 11.6161C51.1641 11.6161 52.8876 12.33 54.1583 13.6008C55.4291 14.8716 56.143 16.5951 56.143 18.3922ZM2.90255 8.71211C2.90255 6.91499 3.61646 5.19147 4.88721 3.92071C6.15797 2.64996 7.88149 1.93605 9.67861 1.93605C11.4757 1.93605 13.1992 2.64996 14.47 3.92071C15.7408 5.19147 16.4547 6.91499 16.4547 8.71211C16.4547 10.8159 14.1359 14.6236 11.9455 17.7086C10.8275 19.2833 8.52976 19.2833 7.4117 17.7086C5.22133 14.6236 2.90255 10.8159 2.90255 8.71211ZM6.08972 43.8435C5.95636 43.9783 5.67378 44.0062 5.58038 43.8412C3.35787 39.9154 2.11219 35.5097 1.95218 30.9962C1.78854 26.3804 2.76549 21.7966 4.79509 17.6501C4.83622 17.5661 4.95329 17.5583 5.00555 17.6359C6.94641 20.4964 8.8558 22.7882 8.93566 22.885C9.02652 22.9937 9.14014 23.0812 9.26852 23.1413C9.39689 23.2013 9.53689 23.2324 9.67861 23.2324C9.82033 23.2324 9.96033 23.2013 10.0887 23.1413C10.2171 23.0812 10.3307 22.9937 10.4216 22.885C10.5014 22.7882 12.4108 20.4964 14.3517 17.6359C14.5487 17.3441 14.9633 17.3022 15.2125 17.551L15.2951 17.6335C15.4177 17.7559 15.4867 17.9221 15.4867 18.0954V18.96C15.4867 19.5795 15.2403 20.1737 14.8018 20.6113C14.6205 20.7932 14.5186 21.0394 14.5186 21.2962C14.5186 21.553 14.6205 21.7993 14.8018 21.9811L17.7058 24.8851C17.8121 24.9915 17.9418 25.0714 18.0845 25.1186L19.246 25.5054C20.0542 25.7746 20.6885 26.4087 20.9577 27.2169C21.1427 27.7721 21.1426 28.3724 20.9574 28.9276L20.3981 30.6048C19.988 31.4257 19.1492 31.9443 18.2316 31.9443H17.4227C17.2724 31.9444 17.1242 31.9792 16.9895 32.0459L11.1814 34.95C11.0442 35.0187 10.9253 35.1189 10.8344 35.2426C10.7435 35.3663 10.6833 35.5097 10.6587 35.6612C10.6342 35.8127 10.6459 35.9678 10.693 36.1139C10.7402 36.2599 10.8213 36.3927 10.9298 36.5012L13.1493 38.7197C13.4063 38.9766 13.5506 39.325 13.5506 39.6883C13.5506 40.0517 13.4062 40.4002 13.1492 40.657L12.2722 41.5333C12.0979 41.7074 11.8968 41.8524 11.6765 41.9628C11.0283 42.2875 10.2649 42.2875 9.61665 41.9628L9.14379 41.726C8.96183 41.6357 8.75613 41.6046 8.5556 41.6371C8.35506 41.6697 8.16976 41.7642 8.02574 41.9075L6.08972 43.8435ZM30.0068 58.0805C28.4655 58.081 26.928 57.9547 25.41 57.7034C24.6436 57.5766 24.5241 56.58 25.2189 56.2327C25.335 56.1747 25.463 56.1445 25.5928 56.1445H28.0708C28.2211 56.1444 28.3693 56.1096 28.5039 56.0429L30.44 55.0749C30.5327 55.0277 30.6176 54.9664 30.6916 54.8934L31.0607 54.5237C31.348 54.2361 31.6983 54.0193 32.084 53.8908C33.0237 53.5775 34.0598 53.8223 34.76 54.5231L35.13 54.8934C35.3117 55.0748 35.558 55.1766 35.8148 55.1765H37.7508C38.0076 55.1766 38.254 55.0748 38.4357 54.8934L39.4035 53.9251C40.0944 53.2337 41.2152 53.2338 41.906 53.9254C41.9798 53.9988 42.0647 54.0601 42.1577 54.1068C42.6671 54.361 42.6765 55.079 42.1634 55.3255C38.3757 57.1452 34.2205 58.0895 30.0068 58.0805ZM49.857 49.8585C48.8881 50.8279 47.8507 51.7252 46.7532 52.5436C45.8971 53.1821 44.7525 53.2383 43.7973 52.7607L43.5999 52.662C43.3115 52.5178 43.0482 52.3281 42.8202 52.1001L41.3397 50.6196C41.1579 50.4383 40.9116 50.3364 40.6549 50.3364C40.3981 50.3364 40.1518 50.4383 39.97 50.6196L37.7515 52.8391C37.4946 53.0961 37.1462 53.2405 36.7829 53.2405C36.4195 53.2405 36.071 53.0961 35.8142 52.839L34.5637 51.5876C34.4364 51.4606 34.2763 51.3714 34.1013 51.3302C33.9263 51.2889 33.7433 51.2972 33.5727 51.3541L30.6687 52.3221C30.5259 52.3693 30.3962 52.4493 30.2899 52.5556L29.7771 53.0684C29.5494 53.2962 29.2864 53.4858 28.9983 53.6299L28.4758 53.8914C28.0591 54.0999 27.5994 54.2085 27.1334 54.2085H25.1667C25.0165 54.2086 24.8682 54.2434 24.7336 54.3101L21.6526 55.8515C20.9187 56.2187 20.0632 56.2767 19.3046 55.9637C15.5658 54.4211 12.2038 52.0878 9.45009 49.1235C8.96243 48.5985 8.7106 47.9013 8.7106 47.1848V46.4644C8.71046 46.3141 8.67568 46.1659 8.60896 46.0312L8.25274 45.3201C8.07312 44.9615 8.14327 44.5282 8.42686 44.2447C8.71044 43.9611 9.14373 43.8909 9.5023 44.0705L10.2134 44.4268C10.3481 44.4936 10.4963 44.5284 10.6466 44.5284C10.7969 44.5284 10.9452 44.4936 11.0798 44.4268L13.0158 43.4588C13.1086 43.4116 13.1934 43.3503 13.2675 43.2773L15.2035 41.3412C15.3849 41.1595 15.4868 40.9132 15.4867 40.6564V38.7204C15.4868 38.4636 15.3849 38.2172 15.2035 38.0355L13.2675 36.0995C13.2581 36.0907 13.2604 36.0752 13.2719 36.0695L17.0298 34.191C17.4386 33.9867 17.8893 33.8803 18.3463 33.8803H20.3267C20.5065 33.8803 20.6828 33.8303 20.8358 33.7358C20.9888 33.6414 21.1125 33.5062 21.1931 33.3455L22.1611 31.4095C22.1814 31.3684 22.1988 31.326 22.2131 31.2824L23.1811 28.3784C23.2477 28.1797 23.2477 27.9648 23.1811 27.7661L22.2131 24.8621C22.1655 24.7196 22.0854 24.5901 21.9791 24.4838C21.8729 24.3776 21.7434 24.2975 21.6008 24.2499L19.44 23.5299C19.0937 23.4145 18.779 23.2201 18.5209 22.9619L17.1389 21.58C16.9823 21.4234 16.9826 21.1693 17.1395 21.0131C17.3209 20.8313 17.4228 20.585 17.4227 20.3282V17.4242C17.4228 17.1674 17.3209 16.9211 17.1395 16.7393C16.3484 15.9482 16.2102 14.7248 16.7333 13.7359C17.8343 11.6546 18.3907 9.97223 18.3907 8.71211C18.3909 8.38233 18.3724 8.05364 18.3353 7.72758C18.1488 6.08461 18.6907 4.25966 20.2413 3.68541C23.0242 2.65477 25.9589 2.06918 28.9369 1.95624C30.9489 1.87994 32.9574 2.02025 34.9285 2.3712C37.3398 2.80052 37.6585 5.81362 35.5816 7.11176L34.3338 7.89172C34.1495 8.0067 34.0093 8.18036 33.9358 8.38471C33.8623 8.58907 33.8597 8.81223 33.9284 9.01824L34.3765 10.3631C34.628 11.1181 34.5693 11.9422 34.2132 12.6539L33.9804 13.119C33.8664 13.3489 33.8477 13.6146 33.9284 13.8583L34.8964 16.7623C34.9107 16.8058 34.9281 16.8483 34.9485 16.8894L35.1854 17.3625C35.51 18.0106 35.51 18.7738 35.1854 19.4218C35.0749 19.6423 34.9298 19.8435 34.7554 20.0179L34.162 20.6113C33.9806 20.7931 33.8787 21.0394 33.8788 21.2962V22.5883C33.8788 22.9106 33.8269 23.2308 33.725 23.5366L33.3911 24.5387C33.1802 25.1718 32.7642 25.7165 32.209 26.0866L30.4884 27.2337L28.6056 28.1739C28.376 28.289 28.2015 28.4905 28.1204 28.7341L27.1524 31.6382C27.1196 31.7369 27.1029 31.8403 27.1028 31.9443V32.9123C27.1029 33.0626 27.1377 33.2108 27.2044 33.3455L28.1724 35.2815C28.2874 35.5111 28.489 35.6856 28.7326 35.7667L31.6367 36.7347C31.7911 36.7858 31.9558 36.7974 32.1158 36.7686L40.7182 35.2046C41.6871 35.0285 42.6808 35.3391 43.3769 36.0358L43.842 36.5012C43.9605 36.6191 44.1074 36.7045 44.2685 36.749C44.4296 36.7935 44.5994 36.7957 44.7616 36.7553L47.3064 36.1193C47.8002 35.9959 48.3225 36.1409 48.6821 36.5012C48.7561 36.5743 48.841 36.6355 48.9338 36.6827L50.294 37.3628C50.5824 37.507 50.8456 37.6968 51.0737 37.9248L51.5861 38.4372C51.7301 38.5805 51.9154 38.6751 52.116 38.7076C52.3165 38.7402 52.5222 38.7091 52.7041 38.6187L54.3256 37.8074C54.398 37.7712 54.4778 37.7524 54.5587 37.7524C54.6969 37.7524 54.8293 37.8072 54.927 37.9049L55.2371 38.215C55.3285 38.3063 55.4082 38.4085 55.4747 38.5193L55.5618 38.6645C56.026 39.4382 56.1202 40.3854 55.7598 41.2126C54.3553 44.4363 52.354 47.3705 49.857 49.8585ZM56.9731 37.2538C56.932 37.1863 56.8833 37.1238 56.8279 37.0675L55.8599 36.0995C55.6781 35.9181 55.4318 35.8162 55.175 35.8163H54.207C54.0567 35.8165 53.9085 35.8513 53.7738 35.918L53.0627 36.2742C52.7042 36.4538 52.271 36.3834 51.9878 36.0995C51.9138 36.0264 51.8289 35.9652 51.7361 35.918L50.3759 35.2379C50.0875 35.0937 49.8242 34.9039 49.5962 34.6759L49.0838 34.1635C48.9654 34.0455 48.8185 33.9602 48.6574 33.9156C48.4963 33.8711 48.3264 33.869 48.1642 33.9094L46.4718 34.3323C45.4492 34.5879 44.3674 34.288 43.6223 33.5423L43.2757 33.1955C43.1649 33.0851 43.029 33.0031 42.8796 32.9565C42.7302 32.91 42.5718 32.9002 42.4179 32.928L32.7688 34.6819C32.2729 34.772 31.7623 34.7358 31.2841 34.5765L30.6531 34.3662C30.0588 34.1682 29.5675 33.7421 29.2876 33.1817L29.1929 32.9921C29.0915 32.7892 29.0388 32.5656 29.0388 32.3387C29.0388 32.1817 29.0641 32.0256 29.1137 31.8766L29.4369 30.9066C29.6887 30.151 30.2305 29.5265 30.9431 29.1707L31.408 28.9386C31.4431 28.9205 31.4781 28.8999 31.512 28.8781L34.4161 26.9421C34.5951 26.8226 34.7293 26.6467 34.7972 26.4424L35.7652 23.5384C35.7979 23.4396 35.8147 23.3363 35.8148 23.2322V22.6644C35.8148 22.0449 36.0612 21.4508 36.4997 21.0131C36.5728 20.939 36.634 20.8541 36.6812 20.7614L37.6492 18.8254C37.7161 18.6908 37.7508 18.5425 37.7508 18.3922C37.7508 18.2419 37.7161 18.0936 37.6492 17.959L36.8071 16.2759C36.7434 16.1486 36.6889 16.0169 36.6439 15.8818L36.2851 14.8052C36.0336 14.0501 36.0923 13.2261 36.4485 12.5144L36.6812 12.0493C36.7953 11.8194 36.8139 11.5537 36.7332 11.31C36.3066 10.0309 36.8117 8.62599 37.9551 7.91132L41.3949 5.7614C42.192 5.26315 43.198 5.21036 44.0126 5.67962C46.1111 6.88855 45.048 10.4522 43.3085 12.1372C43.2751 12.1695 43.2419 12.2022 43.209 12.2351C41.576 13.8684 40.6575 16.0826 40.6549 18.3922C40.6549 20.3633 42.0137 23.3653 44.6939 27.316C46.6347 30.1765 48.5441 32.4682 48.624 32.565C48.7148 32.6738 48.8285 32.7613 48.9568 32.8213C49.0852 32.8814 49.2252 32.9125 49.3669 32.9125C49.5087 32.9125 49.6487 32.8814 49.777 32.8213C49.9054 32.7613 50.019 32.6738 50.1099 32.565C50.1897 32.4682 52.0991 30.1765 54.04 27.316C55.1722 25.6468 57.8669 26.0123 58.0088 28.0242C58.2262 31.1066 57.9387 34.2167 57.1457 37.2294C57.1243 37.3105 57.0163 37.3257 56.9731 37.2538Z" fill="#042F47"/>
<path d="M26.1347 44.5284H24.8742C24.0785 44.5284 23.3154 44.2123 22.7528 43.6497L21.9791 42.8759C21.8892 42.786 21.7825 42.7147 21.6651 42.6661C21.5476 42.6174 21.4218 42.5924 21.2946 42.5924H19.3586C19.1789 42.5924 19.0027 42.6425 18.8497 42.737C18.6968 42.8315 18.5732 42.9667 18.4929 43.1275L16.5568 46.9995C16.4896 47.1339 16.4546 47.2821 16.4546 47.4324C16.4546 47.5827 16.4896 47.731 16.5568 47.8654L17.5248 49.8014C17.6396 50.031 17.8409 50.2056 18.0845 50.2869L20.9885 51.2549C21.2096 51.3285 21.4498 51.32 21.665 51.2308C21.8803 51.1417 22.0562 50.9778 22.1604 50.7694C22.5006 50.0893 23.2891 49.7628 24.0105 50.0034L24.8608 50.2869C25.0313 50.3437 25.2143 50.3519 25.3893 50.3106C25.5643 50.2693 25.7243 50.1801 25.8514 50.053L26.8194 49.0849C27.0009 48.9034 27.1028 48.6572 27.1027 48.4004V45.4964C27.1027 45.2397 27.0007 44.9935 26.8192 44.8119C26.6376 44.6304 26.3914 44.5284 26.1347 44.5284ZM25.1667 47.8512C25.1667 47.9462 25.1289 48.0373 25.0617 48.1045C24.9658 48.2004 24.8239 48.2338 24.6952 48.1909L22.5688 47.482C22.3477 47.4084 22.1075 47.4169 21.8922 47.5061C21.677 47.5953 21.5011 47.7591 21.3969 47.9675L21.3552 48.0509C21.0389 48.6831 20.3002 48.9847 19.6295 48.7611C19.2774 48.6437 18.9837 48.3903 18.8177 48.0583C18.6207 47.6643 18.6208 47.2006 18.8178 46.8066L19.706 45.0301C19.8597 44.7226 20.174 44.5284 20.5178 44.5284C20.7585 44.5284 20.9894 44.624 21.1596 44.7943L22.5461 46.1809C22.636 46.2708 22.7428 46.3421 22.8602 46.3908C22.9776 46.4394 23.1035 46.4644 23.2306 46.4644H24.0813C24.6807 46.4644 25.1667 46.9504 25.1667 47.5498V47.8512Z" fill="#042F47"/>
<path d="M46.463 18.3922C46.463 18.9666 46.6333 19.528 46.9524 20.0056C47.2715 20.4831 47.7251 20.8554 48.2557 21.0752C48.7864 21.295 49.3703 21.3525 49.9336 21.2404C50.4969 21.1284 51.0144 20.8518 51.4205 20.4456C51.8266 20.0395 52.1032 19.5221 52.2153 18.9587C52.3273 18.3954 52.2698 17.8115 52.05 17.2809C51.8302 16.7502 51.458 16.2967 50.9804 15.9776C50.5029 15.6585 49.9414 15.4882 49.3671 15.4882C48.5971 15.4891 47.859 15.7953 47.3146 16.3397C46.7702 16.8841 46.4639 17.6223 46.463 18.3922ZM50.3351 18.3922C50.3351 18.5836 50.2783 18.7708 50.1719 18.93C50.0656 19.0892 49.9144 19.2132 49.7375 19.2865C49.5606 19.3598 49.366 19.3789 49.1782 19.3416C48.9904 19.3042 48.818 19.2121 48.6826 19.0767C48.5472 18.9413 48.455 18.7688 48.4176 18.581C48.3803 18.3933 48.3995 18.1986 48.4727 18.0217C48.546 17.8449 48.6701 17.6937 48.8293 17.5873C48.9884 17.481 49.1756 17.4242 49.3671 17.4242C49.6237 17.4245 49.8698 17.5265 50.0512 17.708C50.2327 17.8895 50.3348 18.1355 50.3351 18.3922Z" fill="#042F47"/>
<path d="M12.5827 8.71211C12.5827 8.13775 12.4124 7.57629 12.0933 7.09872C11.7742 6.62116 11.3207 6.24894 10.79 6.02914C10.2594 5.80934 9.6755 5.75184 9.11217 5.86389C8.54885 5.97594 8.0314 6.25252 7.62527 6.65866C7.21913 7.06479 6.94255 7.58224 6.8305 8.14557C6.71844 8.70889 6.77595 9.29279 6.99575 9.82343C7.21555 10.3541 7.58777 10.8076 8.06533 11.1267C8.54289 11.4458 9.10436 11.6161 9.67872 11.6161C10.4486 11.6152 11.1868 11.309 11.7312 10.7646C12.2756 10.2202 12.5818 9.48203 12.5827 8.71211ZM8.71071 8.71211C8.71071 8.52066 8.76748 8.3335 8.87385 8.17431C8.98022 8.01513 9.1314 7.89105 9.30828 7.81779C9.48516 7.74452 9.67979 7.72535 9.86757 7.7627C10.0553 7.80005 10.2278 7.89225 10.3632 8.02763C10.4986 8.163 10.5908 8.33549 10.6281 8.52326C10.6655 8.71104 10.6463 8.90567 10.573 9.08255C10.4998 9.25943 10.3757 9.41061 10.2165 9.51698C10.0573 9.62335 9.87017 9.68012 9.67872 9.68012C9.42208 9.67983 9.17603 9.57775 8.99455 9.39628C8.81308 9.2148 8.711 8.96875 8.71071 8.71211Z" fill="#042F47"/>
</svg>
