<svg width="60" height="60" viewBox="0 0 60 60" fill="none" xmlns="http://www.w3.org/2000/svg">
<path d="M53.3476 29.992C53.3315 42.832 42.9281 53.2354 30.0882 53.2514C27.0906 53.2514 24.125 52.6743 21.3679 51.5362C18.4985 49.7408 17.7611 49.8531 14.7475 46.8394C11.6057 43.6976 12.7277 44.3548 9.39352 40.5717C7.71038 37.3016 6.82874 33.6789 6.82874 29.992C6.82874 17.152 17.2322 6.73257 30.0882 6.73257C42.9442 6.73257 53.3476 17.152 53.3476 29.992Z" fill="#E86262"/>
<path d="M30.1042 6.7486C29.4149 6.7486 28.7256 6.79669 28.0524 6.84478C40.0588 7.90275 49.26 17.9695 49.2439 30.008C49.2279 42.0465 40.0107 52.0973 28.0043 53.1392C28.6936 53.2033 29.3989 53.2354 30.0882 53.2354C42.9281 53.2354 53.3476 42.832 53.3476 29.976C53.3476 17.12 42.9442 6.7486 30.1042 6.7486Z" fill="white"/>
<path d="M58.8298 29.992C58.8298 40.1389 53.4598 49.5325 44.7395 54.7101C36.0192 59.8878 25.199 60.0641 16.2864 55.191C17.9855 54.4857 9.90646 45.3487 11.1889 44.0342C11.3972 43.8258 15.4528 47.9936 15.6291 47.7852C18.4023 48.9233 27.1066 53.2514 30.1042 53.2354C42.9441 53.2354 53.3636 42.832 53.3636 29.976C53.3636 17.12 42.9441 6.7486 30.1042 6.7486C17.2642 6.7486 6.84474 17.152 6.84474 30.008C6.84474 33.6789 7.71036 37.3177 9.40953 40.5878L9.31335 40.6839C7.87066 42.1106 6.76459 43.8418 6.0753 45.7494C-0.641234 35.4742 -0.0962162 22.0732 7.43785 12.3911C14.9719 2.70906 27.8119 -1.15415 39.4175 2.82127C51.0232 6.79669 58.8298 17.7291 58.8298 29.992Z" fill="#BBE5FB"/>
<path d="M30.1043 1.26637C29.415 1.26637 28.7417 1.31445 28.0524 1.36254C43.1206 2.42052 54.7743 14.9719 54.7262 30.0721C54.6781 45.1723 42.9442 57.6436 27.8761 58.6214C28.6135 58.6695 29.3509 58.7176 30.1043 58.7176C45.9739 58.7176 58.8299 45.8616 58.8299 29.992C58.8299 14.1224 45.9579 1.26637 30.1043 1.26637Z" fill="#69CBCC"/>
<path d="M32.8293 27.2669C36.6095 27.2669 39.6741 24.2024 39.6741 20.4221C39.6741 16.6419 36.6095 13.5773 32.8293 13.5773C29.049 13.5773 25.9845 16.6419 25.9845 20.4221C25.9845 24.2024 29.049 27.2669 32.8293 27.2669Z" fill="#E8EDFC"/>
<path d="M43.7777 36.8368C46.0441 36.8368 47.8814 34.9995 47.8814 32.7331C47.8814 30.4667 46.0441 28.6294 43.7777 28.6294C41.5113 28.6294 39.6741 30.4667 39.6741 32.7331C39.6741 34.9995 41.5113 36.8368 43.7777 36.8368Z" fill="#E8EDFC"/>
<path d="M35 25C37.2091 25 39 23.2091 39 21C39 18.7909 37.2091 17 35 17C32.7909 17 31 18.7909 31 21C31 23.2091 32.7909 25 35 25Z" fill="#69CBCC"/>
<path d="M45 35C46.1046 35 47 34.1046 47 33C47 31.8954 46.1046 31 45 31C43.8954 31 43 31.8954 43 33C43 34.1046 43.8954 35 45 35Z" fill="#69CBCC"/>
<path d="M11.1729 46.1341C-0.785456 27.9562 11.3492 3.39835 32.9255 1.76329C32.3163 1.73123 31.7232 1.66711 31.1141 1.66711C9.29737 1.66711 -3.91129 24.7823 5.40209 43.2327C6.26771 44.9479 7.4379 46.4708 8.86456 47.7692C21.8328 59.6153 11.1729 46.1341 11.1729 46.1341Z" fill="white"/>
<path d="M14.4861 45.3832C4.3083 29.6923 14.6362 8.49437 33 7.08302C32.4815 7.05535 31.9767 7 31.4583 7C12.8899 7 2.07321 26.0739 9.99991 42C10.7366 43.4805 11.7858 44.8792 13 46C24.0374 56.2254 14.4861 45.3832 14.4861 45.3832Z" fill="white"/>
<path d="M2.18007 18.8031L4.7128 19.829C3.41437 23.0671 2.74112 26.5135 2.74112 29.992H0C0.0160299 26.1608 0.753407 22.3617 2.18007 18.8031Z" fill="white"/>
<path d="M1.92364 25.9204C1.44274 25.9204 0.977871 25.6639 0.737422 25.2471C0.496973 24.8303 0.480943 24.3014 0.737422 23.8846C0.977871 23.4678 1.42671 23.1953 1.92364 23.1953H1.93967C2.69307 23.1953 3.30221 23.8044 3.30221 24.5578C3.30221 25.3112 2.69307 25.9204 1.92364 25.9204Z" fill="#042F47"/>
<path d="M32.8293 28.6294C37.3657 28.6294 41.0366 24.9586 41.0366 20.4221C41.0366 15.8857 37.3657 12.2148 32.8293 12.2148C28.2928 12.2148 24.6219 15.8857 24.6219 20.4221C24.638 24.9586 28.3088 28.6294 32.8293 28.6294ZM32.8293 14.9559C35.8589 14.9559 38.2955 17.4085 38.2955 20.4221C38.2955 23.4358 35.8429 25.8883 32.8293 25.8883C29.7996 25.8883 27.3631 23.4358 27.3631 20.4221C27.3631 17.4085 29.8156 14.9559 32.8293 14.9559Z" fill="#042F47"/>
<path d="M38.3115 32.7331C38.3115 35.7628 40.7641 38.1993 43.7777 38.1993C46.8074 38.1993 49.2439 35.7467 49.2439 32.7331C49.2439 29.7195 46.7914 27.2669 43.7777 27.2669C40.7481 27.2669 38.3115 29.7034 38.3115 32.7331ZM43.7777 29.992C45.2845 29.992 46.5188 31.2103 46.5188 32.7331C46.5188 34.2559 45.3006 35.4742 43.7777 35.4742C42.2709 35.4742 41.0366 34.2559 41.0366 32.7331C41.0366 31.2103 42.2709 29.992 43.7777 29.992Z" fill="#042F47"/>
<path d="M1 30C1 46.0163 13.9837 59 30 59C46.0163 59 59 46.0163 59 30C59 13.9837 46.0163 1 30 1C18.3775 1 8.35198 7.83713 3.72598 17.7087" stroke="#042F47" stroke-width="2" stroke-linecap="round"/>
<circle cx="30" cy="30" r="23" stroke="#042F47" stroke-width="2"/>
</svg>
