<svg width="45" height="44" viewBox="0 0 45 44" fill="none" xmlns="http://www.w3.org/2000/svg">
<rect width="45" height="44" fill="#E5E5E5"/>
<g clip-path="url(#clip0)">
<rect width="375" height="6015" transform="translate(-17 -978)" fill="white"/>
<path d="M17 23L21 27L28 19" stroke="#042F47" stroke-width="1.5" stroke-linecap="round"/>
<path d="M34.3405 43.1295C33.7965 43.1295 33.2607 42.9971 32.7794 42.7437L23.4567 37.8432C23.1609 37.6877 22.8317 37.6065 22.4975 37.6065C22.1633 37.6065 21.834 37.6877 21.5382 37.8432L12.2155 42.7437C11.6627 43.0344 11.0396 43.1646 10.4166 43.1196C9.79366 43.0746 9.1957 42.8562 8.69039 42.4891C8.18508 42.122 7.79256 41.6208 7.55723 41.0423C7.32191 40.4637 7.25316 39.8308 7.35876 39.2152L9.13907 28.8369C9.19554 28.5074 9.17109 28.1692 9.06782 27.8514C8.96455 27.5335 8.78557 27.2455 8.54627 27.0122L1.011 19.6595C0.563744 19.2236 0.247363 18.6713 0.0976275 18.065C-0.0521083 17.4587 -0.0292265 16.8225 0.163686 16.2286C0.356598 15.6346 0.711846 15.1064 1.18926 14.7038C1.66668 14.3011 2.24722 14.0401 2.86524 13.9502L13.2867 12.4361C13.6173 12.388 13.9312 12.2603 14.2015 12.064C14.4718 11.8676 14.6902 11.6085 14.8381 11.309L19.4988 1.8661C19.7751 1.30597 20.2026 0.834345 20.733 0.504561C21.2634 0.174777 21.8755 0 22.5 0C23.1246 0 23.7367 0.174777 24.2671 0.504561C24.7975 0.834345 25.225 1.30597 25.5013 1.8661L30.162 11.309C30.3099 11.6086 30.5285 11.8678 30.7989 12.0641C31.0693 12.2605 31.3833 12.3881 31.714 12.4361L42.1342 13.9502C42.7523 14.04 43.3329 14.301 43.8104 14.7036C44.2879 15.1061 44.6432 15.6343 44.8362 16.2283C45.0292 16.8223 45.0521 17.4585 44.9024 18.0648C44.7527 18.6712 44.4363 19.2236 43.9891 19.6595L36.4519 27.0096C36.2126 27.2429 36.0336 27.5309 35.9303 27.8488C35.8271 28.1667 35.8026 28.5049 35.8591 28.8343L37.6394 39.2127C37.7212 39.6929 37.6974 40.1853 37.5696 40.6554C37.4419 41.1256 37.2132 41.5622 36.8995 41.935C36.5858 42.3078 36.1947 42.6078 35.7533 42.8141C35.3119 43.0203 34.8309 43.128 34.3437 43.1295H34.3405ZM22.5 36.3181C23.0427 36.3187 23.5771 36.451 24.0572 36.7039L33.3799 41.6044C33.7203 41.7833 34.104 41.8633 34.4876 41.8355C34.8712 41.8077 35.2393 41.6732 35.5504 41.4471C35.8615 41.221 36.1031 40.9124 36.248 40.5562C36.3929 40.2 36.4352 39.8103 36.3702 39.4313L34.5873 29.0516C34.4955 28.5166 34.5353 27.9672 34.7033 27.4511C34.8714 26.9349 35.1626 26.4674 35.5518 26.0889L43.0915 18.7369C43.3671 18.4685 43.5621 18.1283 43.6543 17.7549C43.7466 17.3814 43.7325 16.9896 43.6136 16.6238C43.4947 16.2579 43.2758 15.9327 42.9816 15.6848C42.6874 15.437 42.3297 15.2764 41.949 15.2213L31.5289 13.7091C30.9918 13.6311 30.4818 13.4236 30.0427 13.1046C29.6036 12.7856 29.2487 12.3647 29.0085 11.878L24.3485 2.4351C24.1783 2.09018 23.915 1.79976 23.5883 1.59669C23.2616 1.39361 22.8847 1.28599 22.5 1.28599C22.1154 1.28599 21.7384 1.39361 21.4118 1.59669C21.0851 1.79976 20.8218 2.09018 20.6516 2.4351L15.9915 11.878C15.7514 12.3646 15.3966 12.7855 14.9577 13.1045C14.5187 13.4235 14.0088 13.631 13.4719 13.7091L3.05041 15.2232C2.67015 15.2787 2.31297 15.4394 2.01924 15.6872C1.7255 15.9349 1.5069 16.2599 1.38813 16.6254C1.26936 16.9909 1.25515 17.3823 1.34711 17.7554C1.43907 18.1285 1.63354 18.4685 1.90854 18.7369L9.44832 26.0889C9.83752 26.4674 10.1287 26.9349 10.2967 27.4511C10.4648 27.9672 10.5046 28.5166 10.4127 29.0516L8.63179 39.43C8.56679 39.809 8.60912 40.1987 8.754 40.5549C8.89888 40.9111 9.14052 41.2197 9.45162 41.4458C9.76271 41.6719 10.1309 41.8064 10.5144 41.8342C10.898 41.862 11.2817 41.782 11.6221 41.6031L20.9448 36.7026C21.4245 36.4505 21.9581 36.3186 22.5 36.3181Z" fill="#042F47"/>
</g>
<defs>
<clipPath id="clip0">
<rect width="375" height="6015" fill="white" transform="translate(-17 -978)"/>
</clipPath>
</defs>
</svg>
