<svg width="35" height="45" viewBox="0 0 35 45" fill="none" xmlns="http://www.w3.org/2000/svg">
<path d="M17.4611 45C17.3503 45.0001 17.2413 44.9715 17.1448 44.917C6.24907 38.7548 2.18005e-08 29.6526 2.18005e-08 19.9446V3.49302C-3.49451e-05 3.35869 0.0419946 3.22773 0.120188 3.11851C0.198382 3.0093 0.308813 2.92731 0.435982 2.88406C11.4604 -0.961352 23.4619 -0.961352 34.4863 2.88406C34.6134 2.92731 34.7239 3.0093 34.8021 3.11851C34.8803 3.22773 34.9223 3.35869 34.9223 3.49302V19.9446C34.9223 29.6545 28.6732 38.7548 17.7775 44.917C17.681 44.9715 17.572 45.0001 17.4611 45ZM1.28608 3.95536V19.9446C1.28608 29.0828 7.17633 37.6925 17.4611 43.6168C27.7459 37.6944 33.6362 29.0841 33.6362 19.9446V3.95536C23.1462 0.398077 11.7761 0.398077 1.28608 3.95536Z" fill="#042F47"/>
<path d="M11 20L16.0909 25L25 15" stroke="#042F47" stroke-width="1.5" stroke-linecap="round"/>
</svg>
