<svg width="68" height="38" viewBox="0 0 68 38" fill="none" xmlns="http://www.w3.org/2000/svg">
<rect width="68" height="38" rx="3" fill="#FFBB00"/>
<path d="M38.8458 13.4323H39.6607C39.9595 13.4323 40.2039 13.1879 40.2039 12.8891C40.2039 12.5903 39.9595 12.3458 39.6607 12.3458H38.8458C38.5471 12.3458 38.3026 12.5903 38.3026 12.8891C38.3026 13.1879 38.5471 13.4323 38.8458 13.4323Z" fill="white"/>
<path d="M46.8857 8.59755C46.6955 8.21729 46.3153 8 45.9079 8H23.0921C22.6847 8 22.3045 8.24445 22.1143 8.59755C21.9242 8.97782 21.9785 9.4124 22.223 9.73834L31.811 21.7981V29.6478C31.811 30.0552 32.0283 30.4083 32.3814 30.5984C32.5444 30.6799 32.7073 30.7342 32.8975 30.7342C33.1148 30.7342 33.3321 30.6799 33.5222 30.5441L36.5371 28.4527C36.9717 28.1267 37.2162 27.6378 37.2162 27.1217V21.7709L46.777 9.73834C47.0215 9.4124 47.0758 8.97782 46.8857 8.59755ZM36.2383 21.2548C36.184 21.3363 36.1297 21.445 36.1297 21.5808V27.0946C36.1297 27.2847 36.0482 27.4477 35.9124 27.5563L32.8975 29.6478V21.5808C32.8975 21.3906 32.816 21.2277 32.6802 21.1462L26.5417 13.4323H36.4013C36.7001 13.4323 36.9445 13.1879 36.9445 12.8891C36.9445 12.5903 36.7001 12.3458 36.4013 12.3458H25.8083C25.7811 12.3458 25.7268 12.3458 25.6997 12.3458L23.0921 9.08646H45.9079L36.2383 21.2548Z" fill="white"/>
</svg>
