<svg width="17" height="17" viewBox="0 0 17 17" fill="none" xmlns="http://www.w3.org/2000/svg">
<circle cx="8.5" cy="8.5" r="8.5" fill="white"/>
<path d="M8.5 16C12.6421 16 16 12.6421 16 8.5C16 4.35786 12.6421 1 8.5 1C4.35786 1 1 4.35786 1 8.5C1 12.6421 4.35786 16 8.5 16Z" fill="#F0F0F0"/>
<path d="M16.0007 8.5C16.0007 5.27526 13.9654 2.52619 11.1094 1.46649V15.5335C13.9654 14.4738 16.0007 11.7247 16.0007 8.5Z" fill="#D80027"/>
<path d="M1 8.5C1 11.7247 3.03531 14.4738 5.89132 15.5335V1.46649C3.03531 2.52619 1 5.27526 1 8.5Z" fill="#6DA544"/>
</svg>
