<svg width="20" height="20" viewBox="0 0 20 20" fill="none" xmlns="http://www.w3.org/2000/svg">
<rect width="20" height="20" fill="#E5E5E5"/>
<rect width="1920" height="5235" transform="translate(-390 -13)" fill="white"/>
<path d="M20 10C20 4.5 15.5 0 10 0C4.5 0 0 4.5 0 10C0 15 3.65 19.15 8.45 19.9V12.9H5.9V10H8.45V7.8C8.45 5.3 9.95 3.9 12.25 3.9C13.35 3.9 14.5 4.1 14.5 4.1V6.55H13.25C12 6.55 11.6 7.3 11.6 8.1V10H14.35L13.9 12.9H11.55V19.9C16.35 19.15 20 15 20 10Z" fill="#1877F2"/>
<path d="M13.9 12.9L14.35 9.99996H11.6V8.09996C11.6 7.29996 12 6.54996 13.25 6.54996H14.5V4.09996C14.5 4.09996 13.35 3.89996 12.25 3.89996C9.94999 3.89996 8.44999 5.29996 8.44999 7.79996V9.99996H5.89999V12.9H8.44999V19.9C8.94999 20 9.49999 20 9.99999 20C10.5 20 11.05 19.95 11.55 19.9V12.9H13.9Z" fill="white"/>
</svg>
