<svg width="47" height="61" viewBox="0 0 47 61" fill="none" xmlns="http://www.w3.org/2000/svg">
<path d="M44.3907 45.4336C44.3818 45.4425 43.957 45.8673 43.4316 46.3921C42.3078 47.5145 42.1104 49.4571 42.467 51.0049C42.6213 51.6744 42.7032 52.371 42.7032 53.0859V57.9961C42.7032 58.5469 42.2579 58.9922 41.7071 58.9922H5.20316C4.65237 58.9922 4.20706 58.5469 4.20706 57.9961V53.0859C4.20706 52.3757 4.28784 51.6816 4.44018 51.0145C4.79476 49.4619 4.59971 47.5137 3.47354 46.3876C3.19599 46.11 2.8798 45.7938 2.51956 45.4336C1.34769 44.2617 1.2305 42.3867 2.26175 41.0859C3.51566 39.4805 3.15237 37.6289 2.02737 36.5625C0.785185 35.3906 0.656279 33.4688 1.71097 32.1445L3.15237 30.3398C3.82034 29.5078 4.03128 28.3945 3.72659 27.375L2.80081 24.2227C2.32034 22.6172 3.14066 20.8945 4.69925 20.2617L5.92972 19.7578C7.16019 19.2539 7.96878 18.0586 7.96878 16.7227V13.5C7.96878 6.59766 13.5703 0.996094 20.4727 0.996094H26.4727C33.375 0.996094 38.9766 6.58594 38.9766 13.5V16.7227C38.9766 18.0469 39.7852 19.2539 41.0157 19.7578L42.2461 20.2617C43.8047 20.8945 44.625 22.6055 44.1446 24.2227L43.2188 27.375C42.9141 28.3945 43.1368 29.5078 43.793 30.3398L45.2344 32.1445C46.3008 33.4805 46.1602 35.4023 44.918 36.5625C43.6875 37.7227 43.5469 39.6445 44.5899 40.9805C45.7618 42.5039 45.504 44.3203 44.3907 45.4336Z" fill="#FFDFBA"/>
<path d="M11.9649 23.3555C11.461 23.4141 11.0742 23.8359 11.0742 24.3516V26.2734C11.0742 31.4145 14.208 35.8216 18.6752 37.6944C18.6966 37.7033 18.7061 37.7286 18.6957 37.7493C18.6929 37.7549 18.6914 37.761 18.6914 37.7673V38.6133C18.6914 41.4609 16.3946 43.7461 13.5703 43.7812C11.2326 43.7812 9.12444 44.6054 7.4998 45.9753C6.18009 47.0881 4.42895 47.371 3.20754 46.1511C3.00761 45.9515 2.83358 45.7779 2.70766 45.6528C2.56749 45.5136 2.4223 45.3777 2.29576 45.226C1.31429 44.0495 1.26921 42.32 2.23831 41.0976C3.49222 39.4922 3.12894 37.6406 2.00394 36.5742C0.761748 35.4023 0.632842 33.4805 1.68753 32.1562L3.12894 30.3516C3.7969 29.5195 4.00784 28.4062 3.70315 27.3867L2.77737 24.2344C2.2969 22.6289 3.11722 20.9062 4.67581 20.2734L5.90628 19.7695C7.13675 19.2656 7.94534 18.0703 7.94534 16.7344V13.5117C7.94534 6.60937 13.5469 1.0078 20.4493 1.0078H26.4493C33.3516 1.0078 38.9532 6.59765 38.9532 13.5117V16.7344C38.9532 18.0586 39.7618 19.2656 40.9922 19.7695L42.2227 20.2734C43.7813 20.9062 44.6016 22.6172 44.1211 24.2344L43.1953 27.3867C42.8907 28.4062 43.1133 29.5195 43.7696 30.3516L45.211 32.1562C46.2774 33.4922 46.1368 35.4141 44.8946 36.5742C43.7344 37.6641 43.418 39.5156 44.6602 41.0976C45.6914 42.3984 45.586 44.2734 44.4024 45.4453C44.3949 45.4527 44.0969 45.7508 43.6924 46.1549C42.4716 47.3745 40.7187 47.0895 39.4003 45.9761C37.785 44.6119 35.6838 43.7812 33.3282 43.7812C30.5039 43.7461 28.2071 41.4609 28.2071 38.6133V37.7673C28.2071 37.761 28.2056 37.7549 28.2028 37.7493C28.1925 37.7286 28.2019 37.7033 28.2233 37.6944C32.6905 35.8216 35.8243 31.4145 35.8243 26.2734V20.1094C35.8243 19.6875 35.5664 19.3125 35.168 19.1719C32.9883 18.3867 31.1602 16.875 29.9766 14.8476C29.6368 14.2617 28.8047 14.1914 28.3594 14.707C24.1758 19.5469 18.3633 22.6289 11.9649 23.3555Z" fill="#69CBCC"/>
<path d="M35.168 19.1602C35.5664 19.3008 35.8242 19.6758 35.8242 20.0977V26.2617C35.8242 31.418 32.6719 35.8359 28.1836 37.6992C20.0625 41.0742 11.0742 35.0859 11.0742 26.2617V24.3398C11.0742 23.8359 11.4609 23.4023 11.9648 23.3437C18.3516 22.6172 24.1641 19.5469 28.3594 14.6836C28.8047 14.168 29.6367 14.2383 29.9766 14.8242C31.1602 16.8633 32.9883 18.375 35.168 19.1602Z" fill="#FFDFBA"/>
<path d="M42.7031 53.0977V58.0078C42.7031 58.5586 42.2578 59.0039 41.707 59.0039H5.20313C4.65234 59.0039 4.20703 58.5586 4.20703 58.0078V53.0977C4.20703 47.9531 8.37891 43.7813 13.5234 43.7813C14.2297 43.7813 14.936 43.6373 15.61 43.3386C15.6424 43.3243 15.6806 43.3377 15.6964 43.3694C15.7008 43.3782 15.7072 43.386 15.715 43.392L22.8398 48.9141C23.2031 49.1953 23.707 49.1953 24.0703 48.9141L31.1952 43.392C31.203 43.3859 31.2093 43.3782 31.2137 43.3694C31.2296 43.3377 31.2678 43.3244 31.3001 43.3389C31.9185 43.6153 32.6123 43.7699 33.3281 43.7813C38.6719 43.7695 42.7031 48.0586 42.7031 53.0977Z" fill="#69CBCC"/>
<path d="M30.8438 1.79296C32.4375 2.39062 31.9805 4.7578 30.2813 4.74609C30.2227 4.74609 24.2696 4.74609 24.211 4.74609C17.3086 4.74609 11.7071 10.3476 11.7071 17.25V20.4726C11.7071 21.7969 10.8985 23.0039 9.668 23.5078L8.43753 24C6.87894 24.6328 6.05862 26.3437 6.53909 27.9609L7.46487 31.1133C7.76956 32.1328 7.5469 33.2461 6.89065 34.0781L5.44925 35.8828C4.39456 37.2187 4.52347 39.1406 5.76565 40.3008C7.00784 41.4844 7.14847 43.3945 6.09378 44.7304C5.21487 45.8554 5.1094 47.0859 5.56644 48.1523C5.61331 48.2695 5.46097 48.3867 5.36722 48.2929C4.82815 47.7656 2.543 45.4687 2.51956 45.4453C1.42972 44.3554 1.13675 42.5508 2.34378 40.9922C3.39847 39.6562 3.25784 37.7461 2.01565 36.5742C0.773467 35.4023 0.644561 33.4804 1.69925 32.1562L3.14065 30.3515C3.80862 29.5195 4.01956 28.4062 3.71487 27.3867L2.78909 24.2344C2.30862 22.6289 3.12894 20.9062 4.68753 20.2734L5.918 19.7695C7.14847 19.2656 7.95706 18.0703 7.95706 16.7344V13.5117C7.95706 6.60937 13.5586 1.00781 20.461 1.00781H26.461C27.9844 0.996087 29.4727 1.27734 30.8438 1.79296Z" fill="white"/>
<path d="M20.6367 34.2656C22.6641 35.543 21.082 38.6484 18.8555 37.7578C14.2852 35.9297 11.0742 31.4648 11.0742 26.2617V24.3398C11.0742 23.8359 11.4609 23.4023 11.9648 23.3438C12.4336 23.2852 12.9258 23.2148 13.4648 23.1328C14.168 23.0156 14.8242 23.5195 14.8828 24.2227C15.2578 28.8633 17.543 32.3086 20.6367 34.2656Z" fill="#FFF0DF"/>
<path d="M17.3086 44.6133C17.9414 45.1055 17.6133 46.1367 16.8047 46.1484C11.4844 46.1719 7.45312 50.4375 7.45312 55.4648V56.7422C7.45312 57.9848 6.44577 58.9922 5.20313 58.9922C4.65234 58.9922 4.20703 58.5469 4.20703 57.9961V53.0859C4.20703 48.0234 8.26172 43.7695 13.5938 43.7695C14.3096 43.7582 15.0033 43.6036 15.6217 43.3272C15.6541 43.3127 15.6923 43.326 15.7082 43.3578C15.7126 43.3666 15.7189 43.3742 15.7266 43.3802L17.3086 44.6133Z" fill="white"/>
<path d="M29.6015 44.6133C28.9687 45.1055 29.2969 46.1367 30.1054 46.1484C35.4258 46.1719 39.4453 50.4375 39.4453 55.4648V56.7422C39.4453 57.9848 40.4526 58.9922 41.6953 58.9922C42.2461 58.9922 42.6914 58.5469 42.6914 57.9961V53.0859C42.6914 48.0234 38.6367 43.7695 33.3047 43.7695C32.5889 43.7582 31.8952 43.6036 31.2768 43.3272C31.2444 43.3127 31.2061 43.3261 31.1902 43.3579C31.1858 43.3666 31.1796 43.3742 31.172 43.3802L29.6015 44.6133Z" fill="#BBE5FB"/>
<path d="M22.8398 48.9023C23.2031 49.1836 23.707 49.1836 24.0586 48.9023L31.1835 43.3802C31.1913 43.3742 31.1976 43.3665 31.202 43.3577C31.2178 43.326 31.256 43.3127 31.2884 43.3271C31.5454 43.442 31.8154 43.5359 32.0946 43.6071C32.6981 43.7611 33.1475 44.3583 32.9757 44.9569L29.5687 56.8313C29.1996 58.1176 28.0232 59.0039 26.685 59.0039H20.2017C18.8635 59.0039 17.6871 58.1176 17.318 56.8313L13.911 44.9569C13.7392 44.3583 14.1886 43.7611 14.7921 43.6071C15.0713 43.5359 15.3413 43.442 15.5983 43.3271C15.6307 43.3127 15.6689 43.326 15.6847 43.3577C15.6891 43.3665 15.6954 43.3742 15.7032 43.3803L22.8398 48.9023Z" fill="white"/>
<path d="M15.6563 46.2187C15.6144 46.224 15.5719 46.2295 15.5289 46.2354C14.8687 46.3253 14.2093 45.9554 14.0255 45.315L13.9228 44.9569C13.751 44.3583 14.2003 43.7611 14.8038 43.6071C15.0829 43.5359 15.3529 43.4421 15.6098 43.3272C15.6423 43.3127 15.6806 43.3261 15.6965 43.3579C15.7009 43.3666 15.7071 43.3742 15.7147 43.3802L16.3125 43.8516C17.2617 44.5781 16.8398 46.0781 15.6563 46.2187Z" fill="white"/>
<path d="M31.2539 46.2187C31.2958 46.224 31.3382 46.2295 31.3813 46.2354C32.0414 46.3253 32.7009 45.9554 32.8846 45.315L32.9874 44.9569C33.1592 44.3583 32.7098 43.7611 32.1063 43.6071C31.8272 43.5359 31.5573 43.4421 31.3004 43.3272C31.2679 43.3127 31.2295 43.3261 31.2136 43.3579C31.2093 43.3666 31.2031 43.3742 31.1955 43.3802L30.5977 43.8516C29.6484 44.5781 30.0703 46.0781 31.2539 46.2187Z" fill="#042F47"/>
<path d="M28.205 38.1908C28.1993 39.1212 27.7167 40.0776 26.8213 40.3305C24.6488 40.9441 22.362 40.9781 20.0814 40.3308C19.1864 40.0767 18.706 39.1271 18.7042 38.1968C18.7039 38.0614 18.7032 37.916 18.7031 37.7568C18.7031 37.7499 18.7047 37.7429 18.7079 37.7366C18.7184 37.7156 18.7435 37.7063 18.7652 37.7152C21.7547 38.9478 25.1554 38.9478 28.1449 37.7152C28.1667 37.7063 28.1918 37.7156 28.2023 37.7366C28.2054 37.7429 28.207 37.7499 28.207 37.7568C28.207 37.9141 28.2059 38.0575 28.205 38.1908Z" fill="#69CBCC"/>
<path d="M45.1054 46.1367L44.1806 47.0615C43.2754 47.9667 43.0884 49.3386 43.4008 50.58C43.6051 51.3918 43.7109 52.2321 43.7109 53.0859V58.9922C43.7109 59.543 43.2656 59.9883 42.7148 59.9883C42.164 59.9883 41.7187 59.543 41.7187 58.9922V53.0859C41.7187 49.57 39.5426 46.5696 36.4651 45.3472C35.1358 44.8192 33.7944 45.7789 33.4002 47.1539L29.9297 59.2617C29.8007 59.6953 29.4023 59.9883 28.9687 59.9883C28.3007 59.9883 27.8203 59.3555 28.0078 58.7109L31.1666 47.6962C31.6451 46.0278 30.5146 44.3317 29.2322 43.1623C28.8034 42.7713 28.4258 42.3149 28.1132 41.8008C27.8203 41.332 27.9726 40.7109 28.4414 40.4297C28.9101 40.1367 29.5312 40.2891 29.8125 40.7578C30.5063 41.8992 31.6702 42.6239 32.9778 42.7481C33.1013 42.7599 33.225 42.7438 33.3491 42.7455C33.4842 42.7472 33.6192 42.7738 33.7543 42.7785C35.8256 42.8498 37.8113 43.5325 39.4792 44.7574C40.7462 45.6879 42.5759 45.842 43.6875 44.7305C44.5078 43.9102 44.5781 42.6211 43.8632 41.707C42.2812 39.7031 42.6796 37.2656 44.2031 35.8359C45.0586 35.0273 45.1523 33.6797 44.4257 32.7656L42.9843 30.9609C42.1171 29.8711 41.8359 28.418 42.2343 27.0938L43.1601 23.9414C43.4882 22.8164 42.9257 21.6328 41.8359 21.1875L40.6054 20.6836C38.9882 20.0273 37.9453 18.4688 37.9453 16.7227V13.5C37.9453 7.16016 32.789 2.00391 26.4492 2.00391H20.4492C14.1094 2.00391 8.95311 7.16016 8.95311 13.5V16.7227C8.95311 18.4688 7.91014 20.0156 6.29295 20.6836L5.06249 21.1875C3.97264 21.6328 3.41014 22.8164 3.73827 23.9414L4.66405 27.0938C5.06249 28.4297 4.78124 29.8711 3.91405 30.9609L2.47264 32.7656C1.74608 33.6797 1.83983 35.0391 2.6953 35.8359C4.21874 37.2773 4.61717 39.7031 3.03514 41.707C2.3203 42.6094 2.39061 43.9102 3.21092 44.7305C4.3223 45.8418 6.15283 45.6881 7.41998 44.7583C9.14276 43.4941 11.2475 42.7734 13.5117 42.7734C15.8203 42.7734 17.6953 40.9102 17.6953 38.6016C17.6953 38.4441 17.6042 38.301 17.4633 38.2306C13.4553 36.228 10.7817 32.3907 10.1953 28.1133C10.125 27.5625 10.5 27.0586 11.0508 26.9883C11.6015 26.918 12.1054 27.293 12.1758 27.8438C12.9492 33.4336 17.789 37.6523 23.4492 37.6523C29.7187 37.6523 34.8281 32.5547 34.8281 26.2734V22.2143C34.8281 20.951 34.0134 19.8571 32.9289 19.2091C32.569 18.9941 32.2206 18.7578 31.8858 18.5009C30.2489 17.2446 27.7035 16.9848 26.1253 18.3141C21.6367 22.0947 16.0147 24.2672 10.125 24.5039C9.5742 24.5273 9.10545 24.0938 9.08201 23.543C9.05858 22.9922 9.49217 22.5234 10.0429 22.5C17.25 22.207 24.0351 18.7969 28.5351 12.8906C29.0039 12.2695 29.9765 12.4102 30.2578 13.125C31.3125 15.7734 33.5156 17.6719 36.1054 18.4102C36.4921 18.5156 36.7968 18.8555 36.832 19.3008C36.8437 19.3828 36.832 26.332 36.832 26.3672C36.7684 34.3414 29.7961 40.3678 22.1232 39.5754C20.8492 39.4438 19.6124 40.292 19.024 41.4296C18.4261 42.5857 18.3775 44.1834 19.4059 44.9811L21.6097 46.6904C22.6922 47.53 24.2059 47.5297 25.288 46.6897L27.0117 45.3516C27.4453 45.0117 28.0781 45.0938 28.4179 45.5273C28.7578 45.9609 28.6757 46.5938 28.2422 46.9336L25.6208 48.9625C24.8867 49.5307 24.457 50.4067 24.457 51.3349V57C24.457 57.5508 24.0117 57.9961 23.4609 57.9961C22.9101 57.9961 22.4648 57.5508 22.4648 57V51.337C22.4648 50.4076 22.034 49.5306 21.2984 48.9626L16.7342 45.4381C15.9432 44.8273 14.9003 44.6992 13.9033 44.7674C13.6334 44.7859 13.4834 44.7773 13.5234 44.7773C8.92967 44.7773 5.20311 48.5039 5.20311 53.0977V59.0039C5.20311 59.5547 4.7578 60 4.20702 60C3.65624 60 3.21092 59.5547 3.21092 59.0039V53.0977C3.21092 52.2428 3.31544 51.4048 3.51724 50.5981C3.82879 49.3527 3.64364 47.9757 2.73587 47.0679L1.81639 46.1484C0.386708 44.7188 0.011708 42.3281 1.5703 40.3711C2.30858 39.4336 2.21483 38.1211 1.34764 37.3008C-0.269542 35.7773 -0.457042 33.2461 0.92577 31.5234L2.36718 29.7188C2.82421 29.1445 2.97655 28.3711 2.76561 27.6562L1.82811 24.4922C1.20702 22.3828 2.27343 20.1562 4.31249 19.3242L5.54295 18.8203C6.39842 18.4688 6.96092 17.6367 6.96092 16.7109V13.4883C6.9492 6.05859 13.0078 0 20.4492 0H26.4492C33.8906 0 39.9492 6.05859 39.9492 13.5V16.7227C39.9492 17.6484 40.5 18.4805 41.3671 18.832L42.5976 19.3359C44.6367 20.168 45.7031 22.3945 45.082 24.5039L44.1562 27.6562C43.9453 28.3711 44.0976 29.1328 44.5546 29.7188L45.996 31.5234C47.3671 33.2461 47.1914 35.7891 45.5859 37.3008C44.7187 38.1211 44.625 39.4336 45.3632 40.3711C46.875 42.293 46.5468 44.6953 45.1054 46.1367ZM15.914 48.1055C15.7617 47.5781 15.2109 47.2617 14.6836 47.4141C14.1562 47.5664 13.8398 48.1172 13.9922 48.6445L16.9922 59.2734C17.1445 59.8008 17.6953 60.1172 18.2226 59.9648C18.75 59.8125 19.0664 59.2617 18.914 58.7344L15.914 48.1055Z" fill="#042F47"/>
</svg>
