<svg width="60" height="60" viewBox="0 0 60 60" fill="none" xmlns="http://www.w3.org/2000/svg">
<path d="M45.9961 9.12891C48.1992 9.12891 49.9922 10.9219 49.9922 13.125V56.0039C49.9922 57.6608 48.649 59.0039 46.9922 59.0039H12.9961C11.3392 59.0039 9.99609 57.6608 9.99609 56.0039V13.125C9.99609 10.9219 11.7891 9.12891 13.9922 9.12891H45.9961Z" fill="#BBE5FB"/>
<path d="M36 49.875V56.0039C36 57.6608 34.6569 59.0039 33 59.0039H27C25.3431 59.0039 24 57.6608 24 56.0039V49.875C24 48.2227 25.3477 46.875 27 46.875H33C34.6523 46.875 36 48.2227 36 49.875Z" fill="white"/>
<path d="M44.7656 14.1211H18.9961C16.7813 14.1211 15 15.9141 15 18.1172V56.4902C15 57.872 13.8798 58.9922 12.498 58.9922C11.1163 58.9922 9.99609 57.872 9.99609 56.4902V13.125C9.99609 10.9102 11.7891 9.12891 13.9922 9.12891H44.7422C48.1875 9.12891 48.0234 14.1211 44.7656 14.1211Z" fill="white"/>
<path d="M30.1211 17.2422C34.6062 17.2422 38.2422 13.6062 38.2422 9.12109C38.2422 4.63594 34.6062 1 30.1211 1C25.6359 1 22 4.63594 22 9.12109C22 13.6062 25.6359 17.2422 30.1211 17.2422Z" fill="#BBE5FB"/>
<path d="M32 17C35.866 17 39 13.866 39 10C39 6.13401 35.866 3 32 3C28.134 3 25 6.13401 25 10C25 13.866 28.134 17 32 17Z" fill="#E86262"/>
<path d="M36 56.005C36 57.6618 34.6569 59.0039 33 59.0039H25.0921C24.489 59.0039 24 58.5149 24 57.9118C24 57.3013 24.5017 56.8144 25.1106 56.7699C29.456 56.4521 33.2688 53.8354 34.3711 49.6641C34.6172 48.7383 35.9883 48.8906 36 49.8516C36 49.8588 36 53.3388 36 56.005Z" fill="#69CBCC"/>
<path d="M60 59.0039C60 59.5547 59.5547 60 59.0039 60H0.996094C0.445313 60 0 59.5547 0 59.0039C0 58.4531 0.445313 58.0078 0.996094 58.0078H19.9922C21.649 58.0078 22.9922 56.6647 22.9922 55.0078V49.8867C22.9922 47.6836 24.7852 45.8906 26.9883 45.8906H32.9883C35.1914 45.8906 36.9844 47.6836 36.9844 49.8867V54.1406C36.9844 54.6914 36.5391 55.1367 35.9883 55.1367C35.4375 55.1367 34.9922 54.6914 34.9922 54.1406V49.8867C34.9922 48.7852 34.0898 47.8828 32.9883 47.8828H26.9883C25.8867 47.8828 24.9844 48.7852 24.9844 49.8867V55.0078C24.9844 56.6647 26.3275 58.0078 27.9844 58.0078H45.9844C47.6412 58.0078 48.9844 56.6647 48.9844 55.0078V13.125C48.9844 11.4727 47.6367 10.125 45.9844 10.125H42.8555C42.3047 10.125 41.8594 9.67969 41.8594 9.12891C41.8594 8.57812 42.3047 8.13281 42.8555 8.13281H45.9844C48.7383 8.13281 50.9883 10.3711 50.9883 13.1367V55.0078C50.9883 56.6647 52.3314 58.0078 53.9883 58.0078H58.9922C59.5547 57.9961 60 58.4531 60 59.0039ZM9.99609 54C10.5469 54 10.9922 53.5547 10.9922 53.0039V13.125C10.9922 11.4727 12.3398 10.125 13.9922 10.125H18.2313C19.7606 10.125 20.9969 11.3087 21.6009 12.7137C22.9978 15.9631 26.2264 18.2461 29.9883 18.2461C30.5391 18.2461 30.9844 17.8008 30.9844 17.25C30.9844 16.6992 30.5391 16.2539 29.9883 16.2539C26.0625 16.2539 22.8633 13.0547 22.8633 9.12891C22.8633 5.20312 26.0625 2.00391 29.9883 2.00391C33.9141 2.00391 37.1133 5.20312 37.1133 9.12891C37.1133 11.1211 36.2695 13.0312 34.8047 14.3789C34.3945 14.7539 34.3711 15.3867 34.7461 15.7969C35.1211 16.207 35.7539 16.2305 36.1641 15.8555C38.0508 14.1328 39.1289 11.6836 39.1289 9.12891C39.1289 4.08984 35.0273 0 30 0C26.2382 0 23.0095 2.283 21.6126 5.5324C21.0086 6.93737 19.7723 8.12109 18.243 8.12109H14.0039C11.25 8.12109 9 10.3594 9 13.125V53.0039C9 53.5547 9.44531 54 9.99609 54ZM33.9961 9.12891C33.9961 8.57812 33.5508 8.13281 33 8.13281C31.8933 8.13281 30.9961 7.23563 30.9961 6.12891C30.9961 5.57812 30.5508 5.13281 30 5.13281C29.4492 5.13281 29.0039 5.57812 29.0039 6.12891C29.0039 7.23563 28.1067 8.13281 27 8.13281C26.4492 8.13281 26.0039 8.57812 26.0039 9.12891C26.0039 9.67969 26.4492 10.125 27 10.125C28.1067 10.125 29.0039 11.0222 29.0039 12.1289C29.0039 12.6797 29.4492 13.125 30 13.125C30.5508 13.125 30.9961 12.6797 30.9961 12.1289C30.9961 11.0222 31.8933 10.125 33 10.125C33.5508 10.125 33.9961 9.67969 33.9961 9.12891ZM31.2539 24.9961H28.7578C28.207 24.9961 27.7617 25.4414 27.7617 25.9922C27.7617 26.543 28.207 26.9883 28.7578 26.9883H31.2539C31.8047 26.9883 32.25 26.543 32.25 25.9922C32.25 25.4531 31.8047 24.9961 31.2539 24.9961ZM31.2539 35.0039H28.7578C28.207 35.0039 27.7617 35.4492 27.7617 36C27.7617 36.5508 28.207 36.9961 28.7578 36.9961H31.2539C31.8047 36.9961 32.25 36.5508 32.25 36C32.25 35.4492 31.8047 35.0039 31.2539 35.0039ZM21.2461 24.9961H18.75C18.1992 24.9961 17.7539 25.4414 17.7539 25.9922C17.7539 26.543 18.1992 26.9883 18.75 26.9883H21.2461C21.7969 26.9883 22.2422 26.543 22.2422 25.9922C22.2539 25.4531 21.7969 24.9961 21.2461 24.9961ZM21.2461 35.0039H18.75C18.1992 35.0039 17.7539 35.4492 17.7539 36C17.7539 36.5508 18.1992 36.9961 18.75 36.9961H21.2461C21.7969 36.9961 22.2422 36.5508 22.2422 36C22.2539 35.4492 21.7969 35.0039 21.2461 35.0039ZM41.25 24.9961H38.7539C38.2031 24.9961 37.7578 25.4414 37.7578 25.9922C37.7578 26.543 38.2031 26.9883 38.7539 26.9883H41.25C41.8008 26.9883 42.2461 26.543 42.2461 25.9922C42.2461 25.4531 41.8008 24.9961 41.25 24.9961ZM41.25 35.0039H38.7539C38.2031 35.0039 37.7578 35.4492 37.7578 36C37.7578 36.5508 38.2031 36.9961 38.7539 36.9961H41.25C41.8008 36.9961 42.2461 36.5508 42.2461 36C42.2461 35.4492 41.8008 35.0039 41.25 35.0039Z" fill="#042F47"/>
</svg>
