<svg width="24" height="24" viewBox="0 0 24 24" fill="none" xmlns="http://www.w3.org/2000/svg">
<path d="M22.7359 21.891L17.031 15.9438C18.4992 14.1722 19.2962 11.9789 19.2962 9.70123C19.2962 4.34446 14.9755 0 9.64809 0C4.32066 0 0 4.34446 0 9.70123C0 15.058 4.32066 19.4025 9.64809 19.4025C11.6616 19.4025 13.5493 18.812 15.1852 17.6309L20.8902 23.6204C21.1419 23.8735 21.4355 24 21.8131 24C22.1486 24 22.4423 23.8735 22.694 23.6626C23.1974 23.1986 23.1974 22.3972 22.7359 21.891ZM9.64809 2.53076C13.5912 2.53076 16.7793 5.73638 16.7793 9.70123C16.7793 13.6661 13.5912 16.8717 9.64809 16.8717C5.70495 16.8717 2.51689 13.6661 2.51689 9.70123C2.51689 5.73638 5.70495 2.53076 9.64809 2.53076Z" fill="white"/>
</svg>
