<svg width="24" height="30" viewBox="0 0 24 30" fill="none" xmlns="http://www.w3.org/2000/svg">
<rect width="24" height="30" fill="#E5E5E5"/>
<rect x="-28" y="-153" width="375" height="1266" fill="white"/>
<rect x="-13" y="-10" width="345" height="50" rx="3" fill="#EDF0F2"/>
<path d="M22.1941 22.7156C21.3633 23.5464 21.242 24.9995 21.3356 26.1707C21.3454 26.2931 21.3504 26.4168 21.3504 26.5416V28.9965C21.3504 29.2719 21.1277 29.4946 20.8523 29.4946H2.60135C2.32597 29.4946 2.10332 29.2719 2.10332 28.9965V26.5416C2.10332 26.4169 2.1083 26.2932 2.11807 26.1707C2.21133 25.0006 2.08966 23.5457 1.25962 22.7156C0.673712 22.1297 0.615121 21.1923 1.13072 20.5419C1.75764 19.7392 1.57601 18.8135 1.01354 18.2803C0.392476 17.6944 0.328027 16.7335 0.855343 16.0714L1.57601 15.1691C1.90998 14.7532 2.01544 14.1965 1.8631 13.6868L1.40024 12.1107C1.16001 11.308 1.57015 10.4467 2.34941 10.1304L2.96461 9.87841C3.57981 9.62647 3.98409 9.02885 3.98409 8.36091V6.74967C3.98409 3.29868 6.78472 0.498047 10.2357 0.498047H13.2356C16.6865 0.498047 19.4872 3.29282 19.4872 6.74967V8.36091C19.4872 9.02299 19.8915 9.62647 20.5067 9.87841L21.1219 10.1304C21.9011 10.4467 22.3113 11.3022 22.071 12.1107L21.6082 13.6868C21.4558 14.1965 21.5671 14.7532 21.8953 15.1691L22.6159 16.0714C23.1491 16.7394 23.0788 17.7003 22.4577 18.2803C21.8425 18.8604 21.7722 19.8212 22.2937 20.4892C22.8796 21.2509 22.7507 22.159 22.1941 22.7156Z" fill="#FFDFBA"/>
<path d="M5.98202 11.6771C5.73008 11.7064 5.53674 11.9174 5.53674 12.1752V13.1361C5.53674 15.7064 7.10354 17.9099 9.337 18.8462C9.3477 18.8507 9.35243 18.8633 9.34724 18.8737C9.34585 18.8765 9.34513 18.8796 9.34513 18.8827V19.3056C9.34513 20.7294 8.19675 21.8719 6.78472 21.8895C5.73411 21.8895 4.77623 22.2224 4.00331 22.7872C3.16511 23.3997 2.02212 23.4821 1.28189 22.7542C1.19718 22.6709 1.20302 22.6811 1.12861 22.5885C0.656511 22.0009 0.640846 21.1509 1.119 20.5478C1.74592 19.7451 1.56429 18.8193 1.00182 18.2862C0.380758 17.7003 0.316308 16.7394 0.843624 16.0773L1.56429 15.175C1.89826 14.759 2.00372 14.2024 1.85138 13.6927L1.38852 12.1166C1.1483 11.3139 1.55843 10.4526 2.33769 10.1362L2.95289 9.88427C3.56809 9.63233 3.97237 9.03471 3.97237 8.36677V6.75553C3.97237 3.30454 6.773 0.503906 10.224 0.503906H13.2238C16.6748 0.503906 19.4755 3.29868 19.4755 6.75553V8.36677C19.4755 9.02885 19.8797 9.63233 20.4949 9.88427L21.1101 10.1362C21.8894 10.4526 22.2995 11.308 22.0593 12.1166L21.5964 13.6927C21.4441 14.2024 21.5554 14.759 21.8835 15.175L22.6042 16.0773C23.1374 16.7452 23.0671 17.7061 22.446 18.2862C21.866 18.8311 21.7078 19.7568 22.3288 20.5478C22.8444 21.1981 22.7917 22.1356 22.1999 22.7215C21.3972 23.5242 20.24 23.3187 19.2986 22.6842C18.5563 22.184 17.6548 21.8895 16.6631 21.8895C15.2511 21.8719 14.1027 20.7294 14.1027 19.3056V18.8827C14.1027 18.8796 14.102 18.8765 14.1006 18.8737C14.0954 18.8633 14.1001 18.8507 14.1108 18.8462C16.3443 17.9099 17.9111 15.7064 17.9111 13.1361V10.0542C17.9111 9.84326 17.7822 9.65577 17.583 9.58546C16.4932 9.1929 15.5792 8.43708 14.9874 7.42346C14.8175 7.13051 14.4015 7.09535 14.1789 7.35315C12.0872 9.77295 9.18107 11.3139 5.98202 11.6771Z" fill="#69CBCC"/>
<path d="M17.583 9.57952C17.7822 9.64983 17.9111 9.83732 17.9111 10.0482V13.1301C17.9111 15.7081 16.335 17.917 14.091 18.8486C10.0306 20.536 5.53674 17.542 5.53674 13.1301V12.1692C5.53674 11.9173 5.73009 11.7005 5.98203 11.6712C9.17522 11.3079 12.0813 9.77287 14.1789 7.34136C14.4015 7.08356 14.8175 7.11871 14.9874 7.41167C15.5792 8.43114 16.4932 9.18696 17.583 9.57952Z" fill="#FFDFBA"/>
<path d="M21.3503 26.5475V29.0024C21.3503 29.2778 21.1277 29.5004 20.8523 29.5004H2.60129C2.32592 29.5004 2.10327 29.2778 2.10327 29.0024V26.5475C2.10327 23.9753 4.1891 21.8895 6.76123 21.8895C7.11435 21.8895 7.46746 21.8175 7.80443 21.6682C7.82065 21.661 7.83973 21.6677 7.84766 21.6836C7.84987 21.688 7.85304 21.6919 7.85694 21.6949L11.4192 24.4558C11.6008 24.5964 11.8528 24.5964 12.0344 24.4558L15.5967 21.6949C15.6005 21.6919 15.6037 21.688 15.6059 21.6836C15.6138 21.6678 15.6329 21.6611 15.6491 21.6683C15.9583 21.8065 16.3052 21.8838 16.6631 21.8895C19.3348 21.8837 21.3503 24.0281 21.3503 26.5475Z" fill="#69CBCC"/>
<path d="M15.421 0.896395C16.2178 1.19521 15.9893 2.37874 15.1397 2.37288C15.1104 2.37288 12.134 2.37288 12.1047 2.37288C8.65376 2.37288 5.85313 5.17351 5.85313 8.6245V10.2357C5.85313 10.8978 5.44885 11.5013 4.83365 11.7532L4.21845 11.9993C3.43919 12.3157 3.02906 13.1711 3.26928 13.9797L3.73214 15.5558C3.88448 16.0655 3.77316 16.6221 3.44505 17.0381L2.72438 17.9404C2.19707 18.6083 2.26152 19.5692 2.88258 20.1493C3.50364 20.741 3.57395 21.6961 3.04663 22.364C2.6072 22.9265 2.55447 23.5417 2.78297 24.0748C2.80641 24.1334 2.73024 24.192 2.68337 24.1452C2.41385 23.8815 1.27134 22.7331 1.25962 22.7214C0.714725 22.1765 0.568248 21.2742 1.17173 20.495C1.69905 19.827 1.62874 18.872 1.00768 18.2861C0.386617 17.7002 0.322167 16.7393 0.849483 16.0772L1.57015 15.1749C1.90411 14.7589 2.00958 14.2023 1.85724 13.6926L1.39438 12.1165C1.15415 11.3138 1.56429 10.4525 2.34354 10.1361L2.95875 9.8842C3.57395 9.63226 3.97822 9.03463 3.97822 8.3667V6.75546C3.97822 3.30447 6.77886 0.503838 10.2298 0.503838H13.2297C13.9914 0.497979 14.7355 0.638597 15.421 0.896395Z" fill="white"/>
<path d="M10.3177 17.1318C11.3314 17.7705 10.5404 19.3231 9.42716 18.8778C7.14213 17.9638 5.53674 15.7315 5.53674 13.1301V12.1692C5.53674 11.9173 5.73009 11.7005 5.98203 11.6712C6.21639 11.6419 6.46248 11.6067 6.73199 11.5657C7.08354 11.5071 7.41164 11.7591 7.44094 12.1106C7.62843 14.4308 8.77095 16.1534 10.3177 17.1318Z" fill="#FFF0DF"/>
<path d="M8.65371 22.3055C8.9701 22.5516 8.80604 23.0672 8.40177 23.073C5.74175 23.0848 3.72623 25.2175 3.72623 27.731V28.3696C3.72623 28.9909 3.22258 29.4946 2.60129 29.4946C2.32592 29.4946 2.10327 29.2719 2.10327 28.9966V26.5416C2.10327 24.0105 4.13051 21.8837 6.79638 21.8837C7.15427 21.878 7.50114 21.8007 7.81029 21.6625C7.8265 21.6552 7.84561 21.6619 7.85355 21.6778C7.85574 21.6822 7.85888 21.686 7.86274 21.689L8.65371 22.3055Z" fill="white"/>
<path d="M14.7999 22.3055C14.4835 22.5516 14.6476 23.0672 15.0518 23.073C17.7119 23.0848 19.7215 25.2175 19.7215 27.731V28.3696C19.7215 28.9909 20.2252 29.4946 20.8465 29.4946C21.1218 29.4946 21.3445 29.2719 21.3445 28.9966V26.5416C21.3445 24.0105 19.3172 21.8837 16.6514 21.8837C16.2935 21.878 15.9467 21.8007 15.6375 21.6625C15.6213 21.6553 15.6021 21.6619 15.5942 21.6778C15.592 21.6822 15.5889 21.686 15.5851 21.689L14.7999 22.3055Z" fill="#BBE5FB"/>
<path d="M11.4193 24.4499C11.6009 24.5905 11.8529 24.5905 12.0286 24.4499L15.5909 21.689C15.5948 21.686 15.598 21.6822 15.6002 21.6778C15.6081 21.6619 15.6272 21.6552 15.6434 21.6625C15.7719 21.7199 15.9069 21.7668 16.0465 21.8025C16.3482 21.8795 16.5729 22.178 16.487 22.4773L15.0953 27.3278C14.7262 28.6141 13.5498 29.5004 12.2116 29.5004H11.2305C9.8923 29.5004 8.71592 28.6141 8.34685 27.3278L6.95513 22.4773C6.86925 22.178 7.09392 21.8795 7.39564 21.8025C7.53524 21.7668 7.67025 21.7199 7.79874 21.6625C7.81492 21.6552 7.83401 21.6619 7.84193 21.6778C7.84414 21.6822 7.8473 21.686 7.8512 21.689L11.4193 24.4499Z" fill="white"/>
<path d="M7.8277 23.1082C7.80677 23.1108 7.78555 23.1136 7.76401 23.1165C7.43397 23.1615 7.10425 22.9765 7.01238 22.6563L6.96101 22.4773C6.87512 22.178 7.09979 21.8795 7.40151 21.8025C7.54107 21.7668 7.67603 21.7199 7.80448 21.6625C7.82073 21.6553 7.83989 21.6619 7.84785 21.6779C7.85002 21.6822 7.85311 21.686 7.85691 21.689L8.15581 21.9247C8.6304 22.2879 8.41947 23.0379 7.8277 23.1082Z" fill="white"/>
<path d="M15.626 23.1082C15.6469 23.1108 15.6682 23.1136 15.6897 23.1165C16.0197 23.1615 16.3495 22.9765 16.4413 22.6563L16.4927 22.4773C16.5786 22.178 16.3539 21.8795 16.0522 21.8025C15.9126 21.7668 15.7777 21.7199 15.6492 21.6625C15.633 21.6553 15.6138 21.6619 15.6059 21.6779C15.6037 21.6822 15.6006 21.686 15.5968 21.689L15.2979 21.9247C14.8233 22.2879 15.0342 23.0379 15.626 23.1082Z" fill="#042F47"/>
<path d="M14.1018 19.0944C14.0989 19.5596 13.8576 20.0378 13.4099 20.1642C12.3238 20.471 11.1804 20.488 10.0402 20.1643C9.5927 20.0373 9.35253 19.5625 9.3516 19.0974C9.35147 19.0297 9.35109 18.957 9.35107 18.8774C9.35107 18.8739 9.35188 18.8704 9.35344 18.8673C9.3587 18.8568 9.37124 18.8522 9.38212 18.8566C10.8768 19.4729 12.577 19.4729 14.0717 18.8566C14.0826 18.8522 14.0951 18.8568 14.1004 18.8673C14.102 18.8704 14.1028 18.874 14.1028 18.8774C14.1027 18.9561 14.1022 19.0278 14.1018 19.0944Z" fill="#69CBCC"/>
<path d="M22.5515 23.0671C21.8222 23.7964 21.6955 24.9072 21.8179 25.9312C21.842 26.1326 21.8542 26.3363 21.8542 26.5416V29.4945C21.8542 29.7699 21.6316 29.9926 21.3562 29.9926C21.0808 29.9926 20.8582 29.7699 20.8582 29.4945V26.5416C20.8582 25.2233 20.2464 24.05 19.2915 23.2879C18.1735 22.3957 16.7544 23.3832 16.3602 24.7582L14.964 29.6293C14.8995 29.8461 14.7003 29.9926 14.4835 29.9926C14.1496 29.9926 13.9093 29.6762 14.0031 29.3539L15.3387 24.6966C15.7098 23.4026 14.7552 22.0495 14.0558 20.8993C13.9093 20.6649 13.9855 20.3544 14.2199 20.2138C14.4542 20.0673 14.7648 20.1435 14.9054 20.3778C15.2523 20.9485 15.8342 21.3108 16.488 21.3729C16.5497 21.3788 16.6116 21.3708 16.6736 21.3716C16.7411 21.3725 16.8087 21.3858 16.8762 21.3881C17.9118 21.4238 18.9046 21.7651 19.7385 22.3775C20.372 22.8427 21.2868 22.9198 21.8425 22.3641C22.2526 21.9539 22.2878 21.3094 21.9304 20.8524C21.1394 19.8505 21.3386 18.6318 22.1003 17.917C22.528 17.5127 22.5749 16.839 22.2116 16.3819L21.491 15.4797C21.0574 14.9348 20.9168 14.2082 21.116 13.5462L21.5789 11.9701C21.7429 11.4076 21.4617 10.8158 20.9168 10.5932L20.3016 10.3413C19.493 10.0131 18.9716 9.23389 18.9716 8.36089V6.74964C18.9716 3.57989 16.3936 1.0019 13.2238 1.0019H10.224C7.05424 1.0019 4.47626 3.57989 4.47626 6.74964V8.36089C4.47626 9.23389 3.9548 10.0073 3.14625 10.3413L2.53105 10.5932C1.98616 10.8158 1.70492 11.4076 1.86897 11.9701L2.33184 13.5462C2.53105 14.2141 2.39043 14.9348 1.95686 15.4797L1.2362 16.3819C0.872934 16.839 0.919806 17.5186 1.34752 17.917C2.1092 18.6377 2.3084 19.8505 1.51743 20.8524C1.16003 21.3036 1.19518 21.9539 1.60532 22.3641C2.16097 22.9197 3.07619 22.8429 3.70974 22.378C4.57108 21.7459 5.62337 21.3856 6.75543 21.3856C7.90967 21.3856 8.84712 20.454 8.84712 19.2998C8.84712 19.221 8.80157 19.1495 8.73114 19.1143C6.72723 18.1131 5.39051 16.1945 5.09732 14.0559C5.06216 13.7805 5.24965 13.5286 5.52503 13.4934C5.8004 13.4583 6.05234 13.6458 6.0875 13.9211C6.4742 16.7159 8.89399 18.8252 11.7239 18.8252C14.8585 18.8252 17.4131 16.2765 17.4131 13.136V11.3165C17.4131 10.5589 16.9401 9.91549 16.3035 9.50466C15.2637 8.83363 13.7073 8.65588 12.7358 9.42246C10.5483 11.1485 7.86592 12.1386 5.06216 12.2513C4.78679 12.263 4.55242 12.0462 4.54071 11.7709C4.52899 11.4955 4.74577 11.2611 5.02115 11.2494C8.62447 11.1029 12.0169 9.39794 14.2667 6.44497C14.5011 6.13444 14.9874 6.20475 15.128 6.56215C15.6553 7.8863 16.7568 8.83547 18.0517 9.20459C18.2451 9.25732 18.3974 9.42724 18.415 9.64988C18.4208 9.69089 18.415 13.1653 18.415 13.1829C18.3832 17.1698 14.8972 20.1828 11.061 19.7866C10.424 19.7209 9.80563 20.1449 9.51145 20.7137C9.2125 21.2917 9.18821 22.0906 9.7024 22.4894L10.5725 23.1642C11.2501 23.6898 12.1976 23.6896 12.875 23.1637L13.5051 22.6746C13.7219 22.5047 14.0382 22.5457 14.2082 22.7625C14.3781 22.9793 14.3371 23.2956 14.1203 23.4656L13.3916 24.0296C12.6575 24.5977 12.2278 25.4737 12.2278 26.402V28.4985C12.2278 28.7739 12.0052 28.9965 11.7298 28.9965C11.4544 28.9965 11.2318 28.7739 11.2318 28.4985V26.4041C11.2318 25.4746 10.801 24.5977 10.0653 24.0296L8.52185 22.8377C8.02934 22.4574 6.13903 22.3875 6.76129 22.3875C4.46454 22.3875 2.60136 24.2507 2.60136 26.5474V29.5004C2.60136 29.7758 2.37871 29.9984 2.10334 29.9984C1.82796 29.9984 1.60532 29.7758 1.60532 29.5004V26.5474C1.60532 26.3417 1.61743 26.1378 1.64125 25.9368C1.76251 24.9133 1.63686 23.8018 0.908088 23.073C0.193283 22.3582 0.00579265 21.1629 0.785048 20.1845C1.15417 19.7158 1.1073 19.0595 0.673726 18.6494C-0.134825 17.8877 -0.22857 16.6222 0.462799 15.7609L1.18346 14.8586C1.41197 14.5715 1.48814 14.1848 1.38267 13.8274L0.913947 12.2454C0.603417 11.1908 1.13659 10.0776 2.15607 9.6616L2.77127 9.40966C3.19898 9.23389 3.48022 8.81789 3.48022 8.35503V6.74378C3.47436 3.02914 6.50349 0 10.224 0H13.2238C16.9443 0 19.9735 3.02914 19.9735 6.74964V8.36089C19.9735 8.82375 20.2488 9.23975 20.6824 9.41552L21.2976 9.66746C22.3171 10.0835 22.8503 11.1967 22.5397 12.2513L22.0769 13.8274C21.9714 14.1848 22.0476 14.5656 22.2761 14.8586L22.9967 15.7609C23.6823 16.6222 23.5944 17.8936 22.7917 18.6494C22.3581 19.0595 22.3112 19.7158 22.6804 20.1845C23.4362 21.1454 23.2721 22.3465 22.5515 23.0671ZM7.95654 24.0515C7.88037 23.7878 7.605 23.6296 7.34134 23.7058C7.07768 23.7819 6.91949 24.0573 6.99565 24.321L8.49557 29.6352C8.57174 29.8988 8.84712 30.057 9.11077 29.9808C9.37443 29.9047 9.53263 29.6293 9.45646 29.3656L7.95654 24.0515Z" fill="#042F47"/>
</svg>
