<svg width="45" height="42" viewBox="0 0 45 42" fill="none" xmlns="http://www.w3.org/2000/svg">
<path d="M42.392 21.5531C42.2217 21.5531 42.0584 21.4855 41.938 21.3651C41.8176 21.2447 41.7499 21.0814 41.7499 20.9111V11.9867C41.7499 11.4758 41.547 10.9859 41.1858 10.6247C40.8246 10.2634 40.3346 10.0605 39.8238 10.0605H25.5704C25.4001 10.0605 25.2368 9.99287 25.1164 9.87247C24.996 9.75206 24.9283 9.58875 24.9283 9.41847C24.9283 9.24819 24.996 9.08489 25.1164 8.96448C25.2368 8.84407 25.4001 8.77643 25.5704 8.77643H39.8238C40.6749 8.77745 41.4908 9.11599 42.0926 9.71781C42.6945 10.3196 43.033 11.1356 43.034 11.9867V20.9111C43.034 21.0814 42.9664 21.2447 42.846 21.3651C42.7256 21.4855 42.5623 21.5531 42.392 21.5531Z" fill="#042F47"/>
<path d="M39.8239 41.515H5.81924C4.29149 41.5133 2.8268 40.9056 1.74652 39.8253C0.666233 38.745 0.0585842 37.2804 0.0568848 35.7526V5.03139C0.0568848 4.86111 0.124529 4.6978 0.244935 4.57739C0.365342 4.45699 0.528649 4.38934 0.69893 4.38934C0.869211 4.38934 1.03252 4.45699 1.15292 4.57739C1.27333 4.6978 1.34098 4.86111 1.34098 5.03139V35.7526C1.34233 36.9399 1.81459 38.0782 2.65413 38.9177C3.49367 39.7573 4.63195 40.2295 5.81924 40.2309H39.8239C40.3347 40.2309 40.8246 40.0279 41.1859 39.6667C41.5471 39.3055 41.75 38.8156 41.75 38.3047V29.3803C41.75 29.21 41.8177 29.0467 41.9381 28.9263C42.0585 28.8059 42.2218 28.7383 42.3921 28.7383C42.5623 28.7383 42.7256 28.8059 42.8461 28.9263C42.9665 29.0467 43.0341 29.21 43.0341 29.3803V38.3047C43.0331 39.1558 42.6945 39.9718 42.0927 40.5736C41.4909 41.1754 40.675 41.5139 39.8239 41.515Z" fill="#042F47"/>
<path d="M43.6479 30.0268H34.9276C33.6335 30.0268 32.3924 29.5128 31.4773 28.5977C30.5622 27.6826 30.0481 26.4414 30.0481 25.1473C30.0481 23.8532 30.5622 22.612 31.4773 21.6969C32.3924 20.7819 33.6335 20.2678 34.9276 20.2678H43.6479C44.0061 20.2683 44.3496 20.4107 44.603 20.6639C44.8564 20.9171 44.9992 21.2604 45 21.6186V28.6747C44.9995 29.0332 44.8569 29.3768 44.6034 29.6302C44.35 29.8837 44.0063 30.0263 43.6479 30.0268ZM34.9276 21.5519C33.9741 21.5519 33.0595 21.9307 32.3853 22.6049C31.711 23.2792 31.3322 24.1937 31.3322 25.1473C31.3322 26.1009 31.711 27.0154 32.3853 27.6897C33.0595 28.364 33.9741 28.7428 34.9276 28.7428H43.6479C43.6659 28.7426 43.6831 28.7354 43.6958 28.7226C43.7086 28.7099 43.7158 28.6927 43.716 28.6747V21.6186C43.716 21.6005 43.7088 21.5831 43.6961 21.5703C43.6833 21.5574 43.666 21.5501 43.6479 21.5499L34.9276 21.5519Z" fill="#042F47"/>
<path d="M25.5685 10.0618H5.0879C4.42247 10.0693 3.76216 9.94476 3.14521 9.69531C2.52826 9.44586 1.96693 9.0765 1.49372 8.6086C1.02051 8.14071 0.644823 7.58358 0.388423 6.96949C0.132023 6.3554 0 5.69654 0 5.03107C0 4.36559 0.132023 3.70673 0.388423 3.09264C0.644823 2.47855 1.02051 1.92142 1.49372 1.45353C1.96693 0.985634 2.52826 0.616268 3.14521 0.366822C3.76216 0.117375 4.42247 -0.00719648 5.0879 0.000321048H24.285C24.7959 0.000321048 25.2858 0.203253 25.647 0.564473C26.0083 0.925694 26.2112 1.41561 26.2112 1.92646V9.41976C26.2112 9.50413 26.1946 9.58768 26.1623 9.66561C26.1299 9.74355 26.0826 9.81436 26.0229 9.87399C25.9632 9.93361 25.8924 9.98089 25.8144 10.0131C25.7364 10.0454 25.6529 10.0619 25.5685 10.0618ZM5.0879 1.28441C4.59176 1.27792 4.09926 1.37003 3.639 1.5554C3.17874 1.74077 2.75988 2.01572 2.40674 2.36427C2.05359 2.71282 1.77319 3.12805 1.58181 3.58584C1.39043 4.04363 1.29188 4.53488 1.29188 5.03107C1.29188 5.52725 1.39043 6.0185 1.58181 6.47629C1.77319 6.93409 2.05359 7.34931 2.40674 7.69786C2.75988 8.04642 3.17874 8.32136 3.639 8.50673C4.09926 8.6921 4.59176 8.78421 5.0879 8.77772H24.9271V1.92646C24.9271 1.75618 24.8595 1.59287 24.739 1.47246C24.6186 1.35205 24.4553 1.28441 24.285 1.28441H5.0879Z" fill="#042F47"/>
<path d="M35.5349 27.4041C35.0885 27.4042 34.652 27.2719 34.2807 27.024C33.9094 26.7761 33.6199 26.4236 33.4489 26.0111C33.278 25.5987 33.2331 25.1448 33.3201 24.7069C33.4071 24.269 33.622 23.8667 33.9376 23.5509C34.2532 23.2351 34.6554 23.02 35.0933 22.9327C35.5311 22.8455 35.985 22.8901 36.3976 23.0608C36.8101 23.2316 37.1628 23.5208 37.4109 23.892C37.6591 24.2631 37.7916 24.6995 37.7917 25.146C37.7912 25.7445 37.5533 26.3184 37.1302 26.7417C36.7072 27.165 36.1334 27.4032 35.5349 27.4041ZM35.5349 24.1733C35.3424 24.1732 35.1541 24.2302 34.9939 24.3371C34.8338 24.444 34.7089 24.596 34.6352 24.7739C34.5614 24.9518 34.5421 25.1475 34.5796 25.3364C34.6172 25.5253 34.7099 25.6987 34.846 25.8349C34.9822 25.9711 35.1557 26.0638 35.3446 26.1013C35.5334 26.1389 35.7292 26.1195 35.9071 26.0458C36.0849 25.972 36.237 25.8472 36.3439 25.687C36.4508 25.5268 36.5078 25.3386 36.5076 25.146C36.5073 24.8881 36.4047 24.6409 36.2224 24.4586C36.04 24.2762 35.7928 24.1737 35.5349 24.1733Z" fill="#042F47"/>
</svg>
