<svg width="43" height="45" viewBox="0 0 43 45" fill="none" xmlns="http://www.w3.org/2000/svg">
<path d="M39.218 22.509H32.9269C32.7565 22.509 32.593 22.4413 32.4725 22.3207C32.352 22.2002 32.2843 22.0368 32.2843 21.8664C32.2843 21.6959 32.352 21.5325 32.4725 21.412C32.593 21.2915 32.7565 21.2238 32.9269 21.2238H39.218C39.9389 21.2238 40.6303 20.9374 41.14 20.4276C41.6498 19.9178 41.9362 19.2265 41.9362 18.5056C41.9362 17.7846 41.6498 17.0933 41.14 16.5835C40.6303 16.0737 39.9389 15.7873 39.218 15.7873H24.4381C24.3281 15.7881 24.2196 15.7606 24.1232 15.7074C24.0268 15.6542 23.9457 15.5772 23.8877 15.4836C23.8296 15.3901 23.7966 15.2832 23.7917 15.1733C23.7868 15.0633 23.8103 14.9539 23.8598 14.8556C24.4894 13.7377 24.924 12.5208 25.145 11.257C25.2924 10.4628 25.3484 9.65425 25.3121 8.84725C25.183 6.42416 24.2126 4.122 22.5682 2.3377C22.0557 1.75397 21.3422 1.3846 20.5697 1.30311C20.0493 1.23747 19.5241 1.38037 19.1087 1.70063C18.6934 2.02089 18.4216 2.49248 18.3527 3.01243V4.25908C18.4105 7.07367 17.0675 10.9743 16.5534 12.4458C16.4699 12.6772 16.4185 12.8378 16.3928 12.9149C15.9485 14.5661 15.3748 16.1798 14.677 17.7409C13.7866 19.6342 12.2009 21.1117 10.2495 21.8664L10.031 21.9435C9.94924 21.979 9.86097 21.9971 9.77182 21.9967C9.68266 21.9963 9.59457 21.9773 9.51315 21.941C9.43172 21.9046 9.35875 21.8518 9.29887 21.7857C9.23898 21.7197 9.19349 21.6419 9.1653 21.5573C9.13711 21.4727 9.12682 21.3832 9.1351 21.2944C9.14338 21.2057 9.17004 21.1196 9.21338 21.0417C9.25673 20.9638 9.31582 20.8957 9.38688 20.8419C9.45795 20.7881 9.53944 20.7496 9.62617 20.729L9.78682 20.6647C11.4266 20.0389 12.7602 18.8021 13.5075 17.2139C14.191 15.7131 14.7519 14.1593 15.1847 12.5679C15.1847 12.478 15.2746 12.2916 15.3646 12.0281C15.853 10.6144 17.1446 6.88732 17.0932 4.27193V2.98673C17.0902 2.95681 17.0902 2.92668 17.0932 2.89676C17.187 2.04199 17.6156 1.25918 18.2852 0.719653C18.9548 0.180123 19.8109 -0.0721956 20.6661 0.0179109C21.772 0.119102 22.7984 0.635766 23.5385 1.46376C25.3945 3.47368 26.4881 6.07011 26.6294 8.80227C26.669 9.70819 26.6064 10.6157 26.4431 11.5076C26.2686 12.5555 25.9439 13.5727 25.4791 14.5278H39.218C40.221 14.6084 41.1569 15.0638 41.8394 15.8033C42.5219 16.5427 42.9008 17.5121 42.9008 18.5184C42.9008 19.5247 42.5219 20.4941 41.8394 21.2336C41.1569 21.973 40.221 22.4284 39.218 22.509Z" fill="#042F47"/>
<path d="M38.0741 29.4554H31.7702C31.5997 29.4554 31.4363 29.3877 31.3158 29.2672C31.1953 29.1467 31.1276 28.9833 31.1276 28.8128C31.1276 28.6424 31.1953 28.479 31.3158 28.3585C31.4363 28.2379 31.5997 28.1702 31.7702 28.1702H38.0741C38.4554 28.1885 38.8365 28.1291 39.1943 27.9957C39.552 27.8623 39.8789 27.6577 40.1553 27.3942C40.4316 27.1308 40.6516 26.814 40.8019 26.463C40.9522 26.1121 41.0297 25.7342 41.0297 25.3524C41.0297 24.9706 40.9522 24.5928 40.8019 24.2419C40.6516 23.8909 40.4316 23.5741 40.1553 23.3106C39.8789 23.0472 39.552 22.8426 39.1943 22.7092C38.8365 22.5758 38.4554 22.5164 38.0741 22.5346H32.9333C32.7628 22.5346 32.5994 22.4669 32.4789 22.3464C32.3584 22.2259 32.2907 22.0625 32.2907 21.892C32.2907 21.7216 32.3584 21.5582 32.4789 21.4376C32.5994 21.3171 32.7628 21.2494 32.9333 21.2494H38.0741C38.6266 21.2276 39.1778 21.3175 39.6946 21.5138C40.2115 21.7102 40.6834 22.0089 41.082 22.392C41.4806 22.7752 41.7978 23.2349 42.0144 23.7436C42.2311 24.2523 42.3427 24.7995 42.3427 25.3524C42.3427 25.9053 42.2311 26.4526 42.0144 26.9613C41.7978 27.47 41.4806 27.9297 41.082 28.3128C40.6834 28.696 40.2115 28.9947 39.6946 29.191C39.1778 29.3874 38.6266 29.4773 38.0741 29.4554Z" fill="#042F47"/>
<path d="M37.1424 36.447H30.2151C30.0447 36.447 29.8812 36.3793 29.7607 36.2588C29.6402 36.1383 29.5725 35.9748 29.5725 35.8044C29.5725 35.634 29.6402 35.4705 29.7607 35.35C29.8812 35.2295 30.0447 35.1618 30.2151 35.1618H37.1424C37.8991 35.1618 38.6248 34.8612 39.1598 34.3261C39.6949 33.7911 39.9955 33.0653 39.9955 32.3086C39.9955 31.5519 39.6949 30.8262 39.1598 30.2912C38.6248 29.7561 37.8991 29.4555 37.1424 29.4555H31.6481C31.4777 29.4555 31.3142 29.3878 31.1937 29.2673C31.0732 29.1468 31.0055 28.9833 31.0055 28.8129C31.0055 28.6425 31.0732 28.479 31.1937 28.3585C31.3142 28.238 31.4777 28.1703 31.6481 28.1703H37.1424C37.6858 28.1703 38.2239 28.2773 38.726 28.4853C39.2281 28.6933 39.6843 28.9981 40.0686 29.3824C40.4529 29.7667 40.7577 30.2229 40.9657 30.725C41.1737 31.227 41.2807 31.7652 41.2807 32.3086C41.2807 32.8521 41.1737 33.3902 40.9657 33.8923C40.7577 34.3944 40.4529 34.8506 40.0686 35.2349C39.6843 35.6192 39.2281 35.924 38.726 36.132C38.2239 36.3399 37.6858 36.447 37.1424 36.447Z" fill="#042F47"/>
<path d="M35.2724 42.3717H15.8273C15.4641 42.3742 15.1012 42.3506 14.7413 42.301C12.962 42.0867 11.2273 41.5945 9.60051 40.8423C9.44883 40.7639 9.33451 40.6285 9.28269 40.4658C9.23087 40.3031 9.2458 40.1265 9.32419 39.9748C9.40259 39.8231 9.53803 39.7088 9.70072 39.657C9.86341 39.6052 10.04 39.6201 10.1917 39.6985C11.6997 40.3817 13.3033 40.8303 14.947 41.0287C15.2496 41.0676 15.5544 41.087 15.8594 41.0865H35.2724C35.8877 41.0865 36.4777 40.8421 36.9128 40.4071C37.3478 39.972 37.5922 39.382 37.5922 38.7667C37.5922 38.1515 37.3478 37.5614 36.9128 37.1264C36.4777 36.6914 35.8877 36.4469 35.2724 36.4469H30.2152C30.0447 36.4469 29.8813 36.3792 29.7608 36.2587C29.6403 36.1382 29.5726 35.9748 29.5726 35.8043C29.5726 35.6339 29.6403 35.4705 29.7608 35.35C29.8813 35.2294 30.0447 35.1617 30.2152 35.1617H35.2724C36.2285 35.1617 37.1455 35.5416 37.8215 36.2176C38.4976 36.8937 38.8774 37.8106 38.8774 38.7667C38.8774 39.7228 38.4976 40.6398 37.8215 41.3159C37.1455 41.9919 36.2285 42.3717 35.2724 42.3717Z" fill="#042F47"/>
<path d="M4.96088 45H1.69004C1.24181 45 0.811946 44.8219 0.495002 44.505C0.178058 44.188 0 43.7582 0 43.31V19.1353C0 18.6871 0.178058 18.2572 0.495002 17.9403C0.811946 17.6233 1.24181 17.4453 1.69004 17.4453H4.95446C6.41621 17.447 7.81761 18.0284 8.85122 19.062C9.88484 20.0956 10.4663 21.497 10.468 22.9588V39.4865C10.4663 40.9471 9.88573 42.3475 8.8535 43.381C7.82127 44.4144 6.42152 44.9966 4.96088 45ZM1.69004 18.7305C1.58267 18.7305 1.4797 18.7731 1.40378 18.849C1.32786 18.925 1.2852 19.0279 1.2852 19.1353V43.31C1.2852 43.4173 1.32786 43.5203 1.40378 43.5962C1.4797 43.6721 1.58267 43.7148 1.69004 43.7148H4.95446C6.07535 43.7131 7.14986 43.2671 7.94245 42.4745C8.73505 41.6819 9.18107 40.6074 9.18277 39.4865V22.9588C9.18107 21.8379 8.73505 20.7634 7.94245 19.9708C7.14986 19.1782 6.07535 18.7322 4.95446 18.7305H1.69004Z" fill="#042F47"/>
</svg>
